<svg width="787" height="267" viewBox="0 0 787 267" fill="none" xmlns="http://www.w3.org/2000/svg">
<g clip-path="url(#clip0_0_1)">
<path d="M144.471 72.216H118.164H54.805C31.458 72.216 16.062 78.209 28.712 103.82L40.309 124.623C35.237 128.383 30.186 132.553 25.426 137.063L12.057 113.081C11.91 112.841 11.773 112.592 11.647 112.334C-7.52998 73.617 17.658 53.097 55.365 53.097H118.163H140.808C142.54 59.435 143.719 65.967 144.471 72.216ZM161.695 186.193L171.49 168.622L205.989 106.737C210.726 95.047 212.285 86.037 209.839 80.411C206.449 72.615 194.413 72.216 186.668 72.216H167.383C166.729 65.967 165.713 59.504 164.265 53.097H184.985C201.474 53.097 219.746 55.389 227.315 72.793C233.67 87.408 227.976 106.433 220.429 119.97L188.144 177.882L180.132 192.255C173.765 190.656 167.49 188.514 161.695 186.193ZM136.292 231.76L150.518 206.24C156.285 208.65 162.421 210.88 168.719 212.728L157.177 233.433C135.031 273.159 105.766 281.171 79.09 233.325L48.181 177.882L36.941 157.719C41.459 152.974 46.475 148.595 51.507 144.712L64.836 168.621L95.605 223.815C96.945 226.218 98.658 229.108 100.661 232.016C113.461 250.618 124.591 252.749 136.292 231.76Z" fill="white" fill-opacity="0.5"/>
<path d="M120.01 0.938999C132.447 0.913999 143.49 9.518 151.634 24.031C158.676 36.581 163.802 54.052 165.702 74.088C166.764 85.279 166.666 95.507 165.482 105.086L165.397 105.77L165.368 105.758C159.365 103.427 153.172 101.592 146.87 100.27L146.834 100.263C147.584 92.726 147.564 84.668 146.731 75.881C145.09 58.586 140.812 43.763 134.978 33.369C130.261 24.962 124.978 19.975 120.009 19.985V20.023C115.155 20.023 110.071 24.8 105.453 32.852C102.528 37.952 99.962 44.165 97.861 51.243H78.072C80.823 40.463 84.506 30.985 88.874 23.367C96.959 9.268 107.704 0.904999 120.01 0.904999V0.938999ZM94.708 101.521C95.956 101.347 97.195 101.183 98.427 101.03C111.807 98.947 127.455 98.953 140.831 101.053C158.95 103.897 176.185 110.881 194.392 123.725L185.051 140.482C184.667 140.204 184.279 139.926 183.889 139.649C168.016 128.361 153.249 122.28 137.919 119.873C126.061 118.012 112.935 118.439 101.027 119.899C100.226 120.026 99.426 120.164 98.629 120.312C96.75 114.174 95.445 107.897 94.708 101.521ZM104.196 171.339C103.397 170.437 102.61 169.525 101.839 168.6C92.662 157.61 85.613 146.061 80.632 132.478C74.019 114.447 71.572 94.698 73.912 74.074H93.158C93.111 74.444 93.064 74.815 93.018 75.187V75.225C90.823 93.218 92.854 110.362 98.556 125.907C102.473 136.589 109.237 147.683 116.476 156.353C117.068 157.062 117.67 157.764 118.282 158.457C113.875 163.008 109.13 167.348 104.196 171.339ZM218.937 190.72C221.431 186.421 219.751 179.352 214.829 171.06C211.851 166.045 207.761 160.818 202.692 155.603L212.317 138.337C220.354 145.95 226.774 153.796 231.259 161.351C239.754 175.657 241.682 189.522 235.442 200.28L235.426 200.27C229.263 210.916 216.681 216.032 200.486 215.985C186.146 215.944 168.489 211.872 150.133 204.063C139.531 199.553 129.898 193.909 121.302 187.29C126.625 183.498 130.812 178.748 135.482 174.131C142.087 178.882 149.676 183.141 157.602 186.513C173.664 193.345 188.687 196.908 200.486 196.941C209.81 196.968 216.514 194.956 218.937 190.758V190.72ZM141.588 122.419C148.051 123.74 154.103 125.654 160.171 128.233C159.686 129.653 159.173 131.064 158.633 132.464C150.36 153.924 133.886 178.229 113.625 190.375C106.121 195.676 97.891 200.271 88.977 204.063C88.366 204.323 87.755 204.578 87.147 204.83C84.027 199.234 80.908 193.64 77.789 188.044C79.022 187.553 80.262 187.043 81.509 186.513C109.31 174.685 131.814 151.211 141.588 122.419ZM3.66901 200.28C-2.57099 189.522 -0.641989 175.657 7.85301 161.351C15.215 148.953 27.784 135.768 44.169 124.115C53.825 117.249 63.202 112.032 72.578 108.209C73.517 114.592 74.939 120.908 76.857 127.109C69.773 130.262 62.618 134.391 55.222 139.651C41.049 149.73 30.353 160.838 24.283 171.061C19.36 179.353 17.68 186.422 20.174 190.721V190.758C22.598 194.955 29.301 196.968 38.625 196.941C43.727 196.926 49.432 196.252 55.562 194.939L65.198 212.222C55.614 214.692 46.606 215.963 38.625 215.986C22.431 216.033 9.84801 210.917 3.68601 200.271L3.66901 200.28Z" fill="white" fill-opacity="0.5"/>
<path fill-rule="evenodd" clip-rule="evenodd" d="M654.366 0C663.424 0 670.769 7.346 670.769 16.404C670.769 25.462 663.423 32.808 654.366 32.808C645.309 32.808 637.963 25.462 637.963 16.404C637.963 7.346 645.308 0 654.366 0Z" fill="white" fill-opacity="0.5"/>
<path fill-rule="evenodd" clip-rule="evenodd" d="M306.293 71.081L335.498 49.491C341.948 44.789 348.928 41.197 357.724 41.197H390.385C389.586 41.807 388.257 42.828 386.416 44.239C384.583 45.635 381.942 47.706 378.486 50.431C376.451 51.952 374.037 53.773 371.229 55.904C368.421 58.019 365.443 60.26 362.375 62.626C354.79 68.371 348.038 71.081 337.922 71.081H306.293Z" fill="white" fill-opacity="0.5"/>
<path d="M549.883 144.799H565.574C570.871 144.799 575.966 146.981 580.88 151.307L640.643 198.181V169.276H640.525V144.654H668.213V169.276H668.131V233.577H652.426C647.006 233.577 641.561 231.125 636.088 226.223C636.053 226.179 634.847 225.253 632.49 223.432C630.102 221.619 626.517 218.846 621.725 215.129C616.921 211.408 610.837 206.743 603.492 201.078C596.147 195.434 587.484 188.713 577.497 180.958H577.361V233.577H549.882L549.883 144.799ZM452.341 143.917L452.487 143.91H452.84H453.03H453.346H493.463H493.778H493.969H494.322L494.469 143.917C505.84 144.05 516.147 147.451 524.735 154.819C534.512 163.208 539.104 174.778 539.104 188.567V190.705C539.104 201.893 535.357 211.898 527.459 220.118C516.249 231.784 501.542 233.959 485.977 233.959H317.746C306.676 233.959 296.442 230.991 287.907 224.107C277.306 215.556 272.377 204.221 272.377 191.057V188.456C272.377 176.812 276.292 166.358 284.946 157.882C293.879 149.132 305.133 145.181 317.871 145.181H403.307V146.364C403.307 152.167 400.801 157.75 395.572 162.826C394.124 164.229 392.546 165.213 391.113 166.037C389.68 166.852 388.197 167.514 386.719 167.939C385.243 168.373 383.678 168.659 382.069 168.806L381.07 168.886H330.44V169.019H318.378C309.673 169.019 303.606 173.117 300.225 181.338C299.358 183.814 298.94 186.495 298.94 189.389V189.874C298.94 200.525 303.855 207.409 313.86 209.76C315.88 210.23 317.43 210.119 318.378 210.119C376.845 209.965 434.526 209.253 492.833 209.767H492.849L493.663 209.751L493.759 209.743H494.068C502.244 209.398 508.26 205.513 511.236 197.806C512.5 194.515 512.675 193.068 512.675 190.717C512.675 179.286 508.369 171.756 499.613 168.678C498.114 168.164 496.587 167.914 495.059 167.812H494.662L493.582 167.753H493.517H493.472H493.406L493.267 167.746H493.171H493.163H493.06H493.053H492.949H492.941H492.847H492.831H453.977H453.962H453.866H453.859H453.755H453.748H453.645H453.637H453.542L453.401 167.753H453.336H453.291H453.226L452.146 167.812H451.749C450.228 167.915 448.686 168.157 447.195 168.678C438.439 171.756 434.133 179.286 434.133 190.717C434.133 193.068 434.31 194.515 435.572 197.806C436.153 199.297 436.843 200.649 437.644 201.862H409.06C408.15 198.299 407.701 194.573 407.701 190.703V188.565C407.701 174.761 412.293 163.206 422.07 154.817C430.662 147.451 440.968 144.057 452.341 143.917ZM681.59 200.019C681.59 195.134 683.661 190.212 687.782 185.203C692.536 180.09 698.787 177.534 706.61 177.534C728.067 177.534 745.875 177.534 767.334 177.534C767.334 181.53 766.826 184.982 765.791 187.847C764.755 190.713 763.146 193.218 760.912 195.304C757.783 198.22 754.632 199.939 751.546 200.762C749.798 201.225 747.028 201.563 743.135 201.563C730.257 201.563 721.031 201.563 708.153 201.563C708.153 204.406 708.153 228.516 708.153 231.359L708.227 233.937C699.39 233.937 690.427 233.937 681.59 233.937C681.59 222.63 681.59 211.325 681.59 200.019ZM681.59 165.236C681.59 160.902 683.243 156.236 687.276 151.923C690.538 148.435 693.674 146.812 695.96 146.363C697.921 145.585 699.823 145.18 701.646 145.18C731.236 145.18 757.19 145.18 786.779 145.18C786.779 146.399 786.779 147.618 786.779 148.838C786.779 152.511 785.494 156.404 782.636 160.349C781.336 162.149 779.837 163.5 778.448 164.624C777.075 165.733 775.614 166.6 774.055 167.239C772.512 167.878 770.816 168.342 769.023 168.613C767.209 168.884 765.181 169.017 762.941 169.017C743.098 169.017 727.305 169.017 707.462 169.017C695.555 169.017 687.554 172.161 681.59 177.524C681.59 173.426 681.59 169.334 681.59 165.236Z" fill="white" fill-opacity="0.5"/>
<path d="M640.525 130.139V57.584C640.525 43.459 655.932 40.746 668.213 40.746V130.138H640.525V130.139Z" fill="white" fill-opacity="0.5"/>
<path d="M507.759 104.358C507.759 92.935 516.48 86.588 534.322 86.588H579.384C582.594 86.588 585.172 85.713 587.112 84.009C589.051 82.297 590.014 79.829 590.014 76.612V74.878C590.014 70.044 587.758 66.93 583.27 65.417C582.638 65.204 581.779 65.035 580.669 65.035H534.322C527.227 65.035 522.091 63.603 518.661 61.127C517.162 60.047 515.641 59.011 514.29 57.639C512.953 56.243 511.793 54.7 510.823 52.988C509.852 51.277 509.089 49.418 508.56 47.412C508.03 45.421 507.758 43.349 507.758 41.198H580.985C586.061 41.198 590.777 41.998 595.126 43.607C599.476 45.209 603.266 47.538 606.454 50.535C609.664 53.555 612.161 57.234 613.976 61.569C615.79 65.895 616.702 70.758 616.702 76.173C616.702 88.514 611.566 98.064 601.297 104.852H601.165V104.976L625.135 129.85V129.975H590.014L570.951 110.405C556.964 110.405 548.311 110.405 534.323 110.405C534.323 116.906 534.323 123.407 534.323 129.908C525.471 129.908 516.612 129.908 507.76 129.908C507.759 118.625 507.759 115.642 507.759 104.358Z" fill="white" fill-opacity="0.5"/>
<path d="M270.673 51.298C270.673 49.924 270.944 48.654 271.473 47.449C272.001 46.251 272.744 45.194 273.67 44.26C274.603 43.335 275.675 42.593 276.88 42.064C278.107 41.535 279.378 41.262 280.707 41.262L297.235 41.197V73.696C313.713 73.696 329.022 83.026 341.085 93.522C344.045 96.079 347.043 98.68 350.106 101.339C353.147 103.997 356.32 106.745 359.574 109.581C362.829 112.41 366.275 115.37 369.911 118.455C372.886 121.055 375.486 123.318 377.705 125.221C379.945 127.101 381.893 128.703 383.538 129.974H345.397C344.567 129.445 343.532 128.666 342.267 127.644C341.019 126.631 339.711 125.492 338.337 124.221C338.212 124.221 332.865 119.682 322.294 110.595C319.208 107.87 316.718 105.711 314.815 104.109C312.912 102.478 311.796 101.596 311.48 101.442C309.365 99.863 307.124 98.863 304.714 98.4C302.326 97.96 299.837 97.724 297.235 97.724V129.974H270.672V51.298H270.673Z" fill="white" fill-opacity="0.5"/>
<path d="M389.524 96.036C389.524 91.151 391.596 86.228 395.717 81.219C400.47 76.105 406.722 73.55 414.544 73.55C436.003 73.55 457.453 73.55 478.911 73.55C478.911 77.546 478.404 80.991 477.368 83.863C476.333 86.735 474.71 89.211 472.49 91.32C469.34 94.222 466.231 96.014 463.125 96.778C461.392 97.307 458.606 97.578 454.713 97.578C441.836 97.578 428.966 97.578 416.088 97.578C416.088 100.421 416.088 103.272 416.088 106.115C443.51 106.115 470.934 106.115 498.357 106.115C498.357 107.378 498.357 108.635 498.357 109.899C498.357 114.232 496.476 118.67 492.67 123.209C489.159 126.463 486.266 128.323 484.002 128.771C482.019 129.55 480.116 129.954 478.302 129.954C448.712 129.954 419.114 129.954 389.524 129.954C389.524 118.646 389.524 107.341 389.524 96.036Z" fill="white" fill-opacity="0.5"/>
<path d="M389.524 61.251C389.524 56.917 391.177 52.251 395.21 47.94C398.472 44.451 401.608 42.827 403.894 42.378C405.855 41.6 407.757 41.196 409.58 41.196C439.169 41.196 468.768 41.196 498.357 41.196C498.357 42.415 498.357 43.634 498.357 44.854C498.357 48.527 496.983 52.354 494.213 56.365C492.818 58.098 491.422 59.516 490.025 60.64C488.652 61.757 487.198 62.624 485.631 63.255C484.09 63.91 482.4 64.358 480.6 64.63C478.786 64.908 476.757 65.033 474.517 65.033C454.676 65.033 435.238 65.033 415.396 65.033C403.488 65.033 395.489 68.177 389.523 73.54C389.524 69.442 389.524 65.351 389.524 61.251Z" fill="white" fill-opacity="0.5"/>
<path d="M753.101 78.221C755.725 78.221 757.578 77.058 758.649 74.74C759.011 73.849 759.186 72.867 759.186 71.802C759.186 68.844 757.918 66.852 755.377 65.85C754.647 65.606 753.88 65.488 753.101 65.488H744.775C743.765 65.509 742.888 65.683 742.129 66.01C741.363 66.33 740.73 66.783 740.214 67.346C739.706 67.903 739.323 68.578 739.066 69.358C738.808 70.13 738.683 71.001 738.683 71.941C738.683 74.816 739.943 76.786 742.456 77.852C743.25 78.102 744.022 78.221 744.774 78.221H753.101ZM731.004 71.398C731.004 67.416 732.626 64.082 735.863 61.422C738.48 59.577 741.377 58.665 744.551 58.665H753.24C757.27 58.665 760.647 59.995 763.383 62.654C765.701 65.167 766.863 68.126 766.863 71.509V72.323C766.863 76.062 765.429 79.236 762.561 81.854C759.86 83.985 756.776 85.057 753.316 85.057H744.55C741.23 85.057 738.243 84.061 735.605 82.078C732.542 79.481 731.003 76.188 731.003 72.171V71.398H731.004ZM694.225 76.738C694.225 73.807 695.269 71.628 697.358 70.201C698.786 69.08 700.839 68.516 703.519 68.516H719.427C719.859 68.516 720.172 68.384 720.366 68.119C720.561 67.854 720.658 67.52 720.658 67.131V66.797C720.658 66.129 720.394 65.683 719.872 65.495C719.712 65.439 719.482 65.418 719.169 65.418H701.02C698.201 65.418 696.091 64.067 694.706 61.353C694.386 60.372 694.226 59.612 694.226 59.069V58.735C694.24 58.686 694.268 58.665 694.303 58.665H719.755C720.91 58.665 721.996 58.853 723.026 59.25C724.057 59.64 724.955 60.197 725.727 60.914C726.499 61.624 727.106 62.467 727.565 63.448C728.018 64.43 728.248 65.509 728.248 66.692V67.409C728.248 70.061 727.022 72.233 724.579 73.939C724.029 74.259 723.493 74.517 722.977 74.698C722.462 74.88 721.947 75.018 721.432 75.109C720.916 75.206 720.388 75.262 719.83 75.29C719.28 75.311 718.688 75.325 718.048 75.325H702.9C702.273 75.325 701.96 75.638 701.96 76.279C701.912 76.279 701.891 76.683 701.891 77.476V78.305H719.943C721.934 78.305 723.48 78.772 724.58 79.683C726.349 81.131 727.232 82.913 727.232 85.023L727.156 85.065H694.303C694.254 85.058 694.226 85.037 694.226 84.988V76.738H694.225Z" fill="white" fill-opacity="0.5"/>
<path d="M759.55 109.185C760.511 109.185 760.984 108.642 760.984 107.549C760.984 107.097 760.852 106.672 760.566 106.282C760.343 106.024 759.822 105.899 759.001 105.899H741.457V107.166C741.457 108.266 741.7 108.892 742.194 109.045C742.424 109.143 742.703 109.184 743.023 109.184L759.55 109.185ZM733.833 97.622C733.833 94.991 734.975 92.839 737.244 91.196C738.922 90.124 740.704 89.595 742.584 89.595H766.435C766.484 89.595 766.504 89.63 766.504 89.706C766.504 90.66 766.323 91.544 765.969 92.365C765.6 93.18 765.112 93.89 764.507 94.482C763.887 95.074 763.163 95.54 762.342 95.881C761.513 96.222 760.629 96.382 759.675 96.382H743.023C742.237 96.382 741.763 96.647 741.602 97.176C741.505 97.399 741.456 97.809 741.456 98.415V99.119H759.55C763.233 99.119 765.919 100.532 767.632 103.366C768.266 104.591 768.586 105.886 768.586 107.25V108.002C768.586 110.293 767.66 112.284 765.794 113.961C763.998 115.312 762.07 115.994 760.009 115.994H742.612C739.563 115.994 737.085 114.783 735.184 112.36C734.286 110.988 733.833 109.52 733.833 107.953V97.622ZM694.847 107.667C694.847 104.736 695.892 102.557 697.981 101.13C699.408 100.009 701.461 99.445 704.141 99.445H720.049C720.481 99.445 720.794 99.312 720.988 99.048C721.19 98.783 721.281 98.449 721.281 98.059V97.725C721.281 97.057 721.016 96.611 720.494 96.423C720.334 96.367 720.104 96.346 719.791 96.346H701.642C698.823 96.346 696.705 94.995 695.329 92.28C695.008 91.292 694.848 90.54 694.848 89.997V89.663C694.862 89.614 694.89 89.593 694.925 89.593H720.377C721.532 89.593 722.618 89.781 723.649 90.177C724.679 90.567 725.577 91.124 726.342 91.841C727.121 92.551 727.728 93.394 728.188 94.375C728.64 95.357 728.87 96.436 728.87 97.619V98.336C728.87 100.988 727.644 103.16 725.201 104.866C724.651 105.186 724.115 105.444 723.599 105.625C723.084 105.806 722.569 105.945 722.054 106.036C721.538 106.133 721.01 106.182 720.452 106.217C719.902 106.238 719.31 106.252 718.67 106.252H703.522C702.895 106.252 702.582 106.565 702.582 107.206C702.534 107.206 702.513 107.61 702.513 108.403V109.232H720.565C722.556 109.232 724.102 109.698 725.202 110.617C726.971 112.058 727.854 113.84 727.854 115.95L727.778 115.992H694.925C694.876 115.985 694.848 115.964 694.848 115.923V107.667H694.847Z" fill="white" fill-opacity="0.5"/>
</g>
<defs>
<clipPath id="clip0_0_1">
<rect width="786.778" height="266.286" fill="white"/>
</clipPath>
</defs>
</svg>
