<?xml version="1.0" encoding="utf-8"?>
<!-- Generator: Adobe Illustrator 13.0.0, SVG Export Plug-In . SVG Version: 6.00 Build 14948)  -->
<svg version="1.2" baseProfile="tiny" id="Layer_1" xmlns="http://www.w3.org/2000/svg" xmlns:xlink="http://www.w3.org/1999/xlink"
	 x="0px" y="0px" width="786.778px" height="266.286px" viewBox="0 0 786.778 266.286" xml:space="preserve">
<path fill="#61783E" d="M144.471,72.216h-26.307H54.805c-23.347,0-38.743,5.993-26.093,31.604l11.597,20.803
	c-5.072,3.76-10.123,7.93-14.883,12.44l-13.369-23.982c-0.147-0.24-0.284-0.489-0.41-0.747
	C-7.53,73.617,17.658,53.097,55.365,53.097h62.798h22.645C142.54,59.435,143.719,65.967,144.471,72.216 M161.695,186.193
	l9.795-17.571l34.499-61.885c4.737-11.69,6.296-20.7,3.85-26.326c-3.39-7.796-15.426-8.195-23.171-8.195h-19.285
	c-0.654-6.249-1.67-12.712-3.118-19.119h20.72c16.489,0,34.761,2.292,42.33,19.696c6.355,14.615,0.661,33.64-6.886,47.177
	l-32.285,57.912l-8.012,14.373C173.765,190.656,167.49,188.514,161.695,186.193z M136.292,231.76l14.226-25.52
	c5.767,2.41,11.903,4.64,18.201,6.488l-11.542,20.705c-22.146,39.726-51.411,47.738-78.087-0.108l-30.909-55.443l-11.24-20.163
	c4.518-4.745,9.534-9.124,14.566-13.007l13.329,23.909l30.769,55.194c1.34,2.403,3.053,5.293,5.056,8.201
	C113.461,250.618,124.591,252.749,136.292,231.76z"/>
<path fill="#986C32" d="M120.01,0.939c12.437-0.025,23.48,8.579,31.624,23.092c7.042,12.55,12.168,30.021,14.068,50.057
	c1.062,11.191,0.964,21.419-0.22,30.998l-0.085,0.684l-0.029-0.012c-6.003-2.331-12.196-4.166-18.498-5.488l-0.036-0.007
	c0.75-7.537,0.73-15.595-0.103-24.382c-1.641-17.295-5.919-32.118-11.753-42.512c-4.717-8.407-10-13.394-14.969-13.384v0.038
	c-4.854,0-9.938,4.777-14.556,12.829c-2.925,5.1-5.491,11.313-7.592,18.391H78.072c2.751-10.78,6.434-20.258,10.802-27.876
	c8.085-14.099,18.83-22.462,31.136-22.462V0.939z M94.708,101.521c1.248-0.174,2.487-0.338,3.719-0.491
	c13.38-2.083,29.028-2.077,42.404,0.023c18.119,2.844,35.354,9.828,53.561,22.672l-9.341,16.757
	c-0.384-0.278-0.772-0.556-1.162-0.833c-15.873-11.288-30.64-17.369-45.97-19.776c-11.858-1.861-24.984-1.434-36.892,0.026
	c-0.801,0.127-1.601,0.265-2.398,0.413C96.75,114.174,95.445,107.897,94.708,101.521z M104.196,171.339
	c-0.799-0.902-1.586-1.814-2.357-2.739c-9.177-10.99-16.226-22.539-21.207-36.122c-6.613-18.031-9.06-37.78-6.72-58.404h19.246
	c-0.047,0.37-0.094,0.741-0.14,1.113v0.038c-2.195,17.993-0.164,35.137,5.538,50.682c3.917,10.682,10.681,21.776,17.92,30.446
	c0.592,0.709,1.194,1.411,1.806,2.104C113.875,163.008,109.13,167.348,104.196,171.339z M218.937,190.72
	c2.494-4.299,0.814-11.368-4.108-19.66c-2.978-5.015-7.068-10.242-12.137-15.457l9.625-17.266
	c8.037,7.613,14.457,15.459,18.942,23.014c8.495,14.306,10.423,28.171,4.183,38.929l-0.016-0.01
	c-6.163,10.646-18.745,15.762-34.94,15.715c-14.34-0.041-31.997-4.113-50.353-11.922c-10.602-4.51-20.235-10.154-28.831-16.773
	c5.323-3.792,9.51-8.542,14.18-13.159c6.605,4.751,14.194,9.01,22.12,12.382c16.062,6.832,31.085,10.395,42.884,10.428
	c9.324,0.027,16.028-1.985,18.451-6.183V190.72z M141.588,122.419c6.463,1.321,12.515,3.235,18.583,5.814
	c-0.485,1.42-0.998,2.831-1.538,4.231c-8.273,21.46-24.747,45.765-45.008,57.911c-7.504,5.301-15.734,9.896-24.648,13.688
	c-0.611,0.26-1.222,0.515-1.83,0.767c-3.12-5.596-6.239-11.19-9.358-16.786c1.233-0.491,2.473-1.001,3.72-1.531
	C109.31,174.685,131.814,151.211,141.588,122.419z M3.669,200.28c-6.24-10.758-4.311-24.623,4.184-38.929
	c7.362-12.398,19.931-25.583,36.316-37.236c9.656-6.866,19.033-12.083,28.409-15.906c0.939,6.383,2.361,12.699,4.279,18.9
	c-7.084,3.153-14.239,7.282-21.635,12.542c-14.173,10.079-24.869,21.187-30.939,31.41c-4.923,8.292-6.603,15.361-4.109,19.66v0.037
	c2.424,4.197,9.127,6.21,18.451,6.183c5.102-0.015,10.807-0.689,16.937-2.002l9.636,17.283c-9.584,2.47-18.592,3.741-26.573,3.764
	c-16.194,0.047-28.777-5.069-34.939-15.715L3.669,200.28z"/>
<path fill-rule="evenodd" fill="#986C32" d="M654.366,0c9.058,0,16.403,7.346,16.403,16.404s-7.346,16.404-16.403,16.404
	s-16.403-7.346-16.403-16.404S645.308,0,654.366,0"/>
<path fill-rule="evenodd" fill="#986C32" d="M306.293,71.081l29.205-21.59c6.45-4.702,13.43-8.294,22.226-8.294h32.661
	c-0.799,0.61-2.128,1.631-3.969,3.042c-1.833,1.396-4.474,3.467-7.93,6.192c-2.035,1.521-4.449,3.342-7.257,5.473
	c-2.808,2.115-5.786,4.356-8.854,6.722c-7.585,5.745-14.337,8.455-24.453,8.455H306.293z"/>
<path fill="#986C32" d="M549.883,144.799h15.691c5.297,0,10.392,2.182,15.306,6.508l59.763,46.874v-28.905h-0.118v-24.622h27.688
	v24.622h-0.082v64.301h-15.705c-5.42,0-10.865-2.452-16.338-7.354c-0.035-0.044-1.241-0.97-3.598-2.791
	c-2.388-1.813-5.973-4.586-10.765-8.303c-4.804-3.721-10.888-8.386-18.233-14.051c-7.345-5.644-16.008-12.365-25.995-20.12h-0.136
	v52.619h-27.479V144.799z M452.341,143.917l0.146-0.007h0.353h0.19h0.316h40.117h0.315h0.191h0.353l0.147,0.007
	c11.371,0.133,21.678,3.534,30.266,10.902c9.777,8.389,14.369,19.959,14.369,33.748v2.138c0,11.188-3.747,21.193-11.645,29.413
	c-11.21,11.666-25.917,13.841-41.482,13.841H317.746c-11.07,0-21.304-2.968-29.839-9.852c-10.601-8.551-15.53-19.886-15.53-33.05
	v-2.601c0-11.644,3.915-22.098,12.569-30.574c8.933-8.75,20.187-12.701,32.925-12.701h85.436v1.183
	c0,5.803-2.506,11.386-7.735,16.462c-1.448,1.403-3.026,2.387-4.459,3.211c-1.433,0.815-2.916,1.477-4.394,1.902
	c-1.476,0.434-3.041,0.72-4.65,0.867l-0.999,0.08H330.44v0.133h-12.062c-8.705,0-14.772,4.098-18.153,12.319
	c-0.867,2.476-1.285,5.157-1.285,8.051v0.485c0,10.651,4.915,17.535,14.92,19.886c2.02,0.47,3.57,0.359,4.518,0.359
	c58.467-0.154,116.148-0.866,174.455-0.352h0.016l0.814-0.016l0.096-0.008h0.309c8.176-0.345,14.192-4.23,17.168-11.937
	c1.264-3.291,1.439-4.738,1.439-7.089c0-11.431-4.306-18.961-13.062-22.039c-1.499-0.514-3.026-0.764-4.554-0.866h-0.397
	l-1.08-0.059h-0.065h-0.045h-0.066l-0.139-0.007h-0.096h-0.008h-0.103h-0.007h-0.104h-0.008h-0.094h-0.016h-38.854h-0.015h-0.096
	h-0.007h-0.104h-0.007h-0.103h-0.008h-0.095l-0.141,0.007h-0.065h-0.045h-0.065l-1.08,0.059h-0.397
	c-1.521,0.103-3.063,0.345-4.554,0.866c-8.756,3.078-13.062,10.608-13.062,22.039c0,2.351,0.177,3.798,1.439,7.089
	c0.581,1.491,1.271,2.843,2.072,4.056h-28.584c-0.91-3.563-1.359-7.289-1.359-11.159v-2.138c0-13.804,4.592-25.359,14.369-33.748
	C430.662,147.451,440.968,144.057,452.341,143.917z M681.59,200.019c0-4.885,2.071-9.807,6.192-14.816
	c4.754-5.113,11.005-7.669,18.828-7.669c21.457,0,39.265,0,60.724,0c0,3.996-0.508,7.448-1.543,10.313
	c-1.036,2.866-2.645,5.371-4.879,7.457c-3.129,2.916-6.28,4.635-9.366,5.458c-1.748,0.463-4.518,0.801-8.411,0.801
	c-12.878,0-22.104,0-34.982,0c0,2.843,0,26.953,0,29.796l0.074,2.578c-8.837,0-17.8,0-26.637,0
	C681.59,222.63,681.59,211.325,681.59,200.019z M681.59,165.236c0-4.334,1.653-9,5.686-13.313c3.262-3.488,6.398-5.111,8.684-5.56
	c1.961-0.778,3.863-1.183,5.686-1.183c29.59,0,55.544,0,85.133,0c0,1.219,0,2.438,0,3.658c0,3.673-1.285,7.566-4.143,11.511
	c-1.3,1.8-2.799,3.151-4.188,4.275c-1.373,1.109-2.834,1.976-4.393,2.615c-1.543,0.639-3.239,1.103-5.032,1.374
	c-1.814,0.271-3.842,0.404-6.082,0.404c-19.843,0-35.636,0-55.479,0c-11.907,0-19.908,3.144-25.872,8.507
	C681.59,173.426,681.59,169.334,681.59,165.236z"/>
<path fill="#61783E" d="M640.525,130.139V57.584c0-14.125,15.407-16.838,27.688-16.838v89.392H640.525z"/>
<path fill="#61783E" d="M507.759,104.358c0-11.423,8.721-17.77,26.563-17.77h45.062c3.21,0,5.788-0.875,7.728-2.579
	c1.939-1.712,2.902-4.18,2.902-7.397v-1.734c0-4.834-2.256-7.948-6.744-9.461c-0.632-0.213-1.491-0.382-2.601-0.382h-46.347
	c-7.095,0-12.231-1.432-15.661-3.908c-1.499-1.08-3.02-2.116-4.371-3.488c-1.337-1.396-2.497-2.939-3.467-4.651
	c-0.971-1.711-1.734-3.57-2.263-5.576c-0.53-1.991-0.802-4.063-0.802-6.214h73.227c5.076,0,9.792,0.8,14.141,2.409
	c4.35,1.602,8.14,3.931,11.328,6.928c3.21,3.02,5.707,6.699,7.522,11.034c1.814,4.326,2.726,9.189,2.726,14.604
	c0,12.341-5.136,21.891-15.405,28.679h-0.132v0.124l23.97,24.874v0.125h-35.121l-19.063-19.57c-13.987,0-22.64,0-36.628,0
	c0,6.501,0,13.002,0,19.503c-8.852,0-17.711,0-26.563,0C507.759,118.625,507.759,115.642,507.759,104.358"/>
<path fill="#61783E" d="M270.673,51.298c0-1.374,0.271-2.644,0.8-3.849c0.528-1.198,1.271-2.255,2.197-3.189
	c0.933-0.925,2.005-1.667,3.21-2.196c1.227-0.529,2.498-0.802,3.827-0.802l16.528-0.065v32.499c16.478,0,31.787,9.33,43.85,19.826
	c2.96,2.557,5.958,5.158,9.021,7.817c3.041,2.658,6.214,5.406,9.468,8.242c3.255,2.829,6.701,5.789,10.337,8.874
	c2.975,2.6,5.575,4.863,7.794,6.766c2.24,1.88,4.188,3.482,5.833,4.753h-38.141c-0.83-0.529-1.865-1.308-3.13-2.33
	c-1.248-1.013-2.556-2.152-3.93-3.423c-0.125,0-5.472-4.539-16.043-13.626c-3.086-2.725-5.576-4.884-7.479-6.486
	c-1.903-1.631-3.019-2.513-3.335-2.667c-2.115-1.579-4.356-2.579-6.766-3.042c-2.388-0.44-4.877-0.676-7.479-0.676v32.25h-26.563
	V51.298z"/>
<path fill="#61783E" d="M389.524,96.036c0-4.885,2.072-9.808,6.193-14.817c4.753-5.114,11.005-7.669,18.827-7.669
	c21.459,0,42.909,0,64.367,0c0,3.996-0.507,7.441-1.543,10.313c-1.035,2.872-2.658,5.348-4.878,7.457
	c-3.15,2.902-6.259,4.694-9.365,5.458c-1.733,0.529-4.519,0.8-8.412,0.8c-12.877,0-25.747,0-38.625,0c0,2.843,0,5.694,0,8.537
	c27.422,0,54.846,0,82.269,0c0,1.263,0,2.52,0,3.784c0,4.333-1.881,8.771-5.687,13.31c-3.511,3.254-6.404,5.114-8.668,5.562
	c-1.983,0.779-3.886,1.183-5.7,1.183c-29.59,0-59.188,0-88.778,0C389.524,118.646,389.524,107.341,389.524,96.036"/>
<path fill="#61783E" d="M389.524,61.251c0-4.334,1.653-9,5.686-13.311c3.262-3.489,6.398-5.113,8.684-5.562
	c1.961-0.778,3.863-1.182,5.686-1.182c29.589,0,59.188,0,88.777,0c0,1.219,0,2.438,0,3.658c0,3.673-1.374,7.5-4.144,11.511
	c-1.395,1.733-2.791,3.151-4.188,4.275c-1.373,1.117-2.827,1.984-4.394,2.615c-1.541,0.655-3.231,1.103-5.031,1.375
	c-1.814,0.278-3.843,0.403-6.083,0.403c-19.841,0-39.279,0-59.121,0c-11.908,0-19.907,3.144-25.873,8.507
	C389.524,69.442,389.524,65.351,389.524,61.251"/>
<path fill="#986C32" d="M753.101,78.221c2.624,0,4.477-1.163,5.548-3.481c0.362-0.891,0.537-1.873,0.537-2.938
	c0-2.958-1.268-4.95-3.809-5.952c-0.73-0.244-1.497-0.362-2.276-0.362h-8.326c-1.01,0.021-1.887,0.195-2.646,0.522
	c-0.766,0.32-1.399,0.773-1.915,1.336c-0.508,0.557-0.891,1.232-1.148,2.012c-0.258,0.772-0.383,1.643-0.383,2.583
	c0,2.875,1.26,4.845,3.773,5.911c0.794,0.25,1.566,0.369,2.318,0.369H753.101z M731.004,71.398c0-3.982,1.622-7.316,4.859-9.976
	c2.617-1.845,5.514-2.757,8.688-2.757h8.689c4.03,0,7.407,1.33,10.143,3.989c2.318,2.513,3.48,5.472,3.48,8.855v0.814
	c0,3.739-1.434,6.913-4.302,9.531c-2.701,2.131-5.785,3.203-9.245,3.203h-8.766c-3.32,0-6.307-0.996-8.945-2.979
	c-3.063-2.597-4.602-5.89-4.602-9.907V71.398z M694.225,76.738c0-2.931,1.044-5.11,3.133-6.537c1.428-1.121,3.481-1.685,6.161-1.685
	h15.908c0.432,0,0.745-0.132,0.939-0.397c0.195-0.265,0.292-0.599,0.292-0.988v-0.334c0-0.668-0.264-1.114-0.786-1.302
	c-0.16-0.056-0.39-0.077-0.703-0.077H701.02c-2.819,0-4.929-1.351-6.314-4.065c-0.32-0.981-0.48-1.741-0.48-2.284v-0.334
	c0.014-0.049,0.042-0.07,0.077-0.07h25.452c1.155,0,2.241,0.188,3.271,0.585c1.031,0.39,1.929,0.947,2.701,1.664
	c0.772,0.71,1.379,1.553,1.838,2.534c0.453,0.982,0.683,2.061,0.683,3.244v0.717c0,2.652-1.226,4.824-3.669,6.53
	c-0.55,0.32-1.086,0.578-1.602,0.759c-0.515,0.182-1.03,0.32-1.545,0.411c-0.516,0.097-1.044,0.153-1.602,0.181
	c-0.55,0.021-1.142,0.035-1.782,0.035H702.9c-0.627,0-0.94,0.313-0.94,0.954c-0.048,0-0.069,0.404-0.069,1.197v0.829h18.052
	c1.991,0,3.537,0.467,4.637,1.378c1.769,1.448,2.652,3.23,2.652,5.34l-0.076,0.042h-32.853c-0.049-0.007-0.077-0.028-0.077-0.077
	V76.738z"/>
<path fill="#986C32" d="M759.55,109.185c0.961,0,1.434-0.543,1.434-1.636c0-0.452-0.132-0.877-0.418-1.267
	c-0.223-0.258-0.744-0.383-1.565-0.383h-17.544v1.267c0,1.1,0.243,1.726,0.737,1.879c0.23,0.098,0.509,0.139,0.829,0.139H759.55z
	 M733.833,97.622c0-2.631,1.142-4.783,3.411-6.426c1.678-1.072,3.46-1.601,5.34-1.601h23.851c0.049,0,0.069,0.035,0.069,0.111
	c0,0.954-0.181,1.838-0.535,2.659c-0.369,0.815-0.857,1.525-1.462,2.117c-0.62,0.592-1.344,1.058-2.165,1.399
	c-0.829,0.341-1.713,0.501-2.667,0.501h-16.652c-0.786,0-1.26,0.265-1.421,0.794c-0.097,0.223-0.146,0.633-0.146,1.239v0.704h18.094
	c3.683,0,6.369,1.413,8.082,4.247c0.634,1.225,0.954,2.52,0.954,3.884v0.752c0,2.291-0.926,4.282-2.792,5.959
	c-1.796,1.351-3.724,2.033-5.785,2.033h-17.397c-3.049,0-5.527-1.211-7.428-3.634c-0.898-1.372-1.351-2.84-1.351-4.407V97.622z
	 M694.847,107.667c0-2.931,1.045-5.11,3.134-6.537c1.427-1.121,3.48-1.685,6.16-1.685h15.908c0.432,0,0.745-0.133,0.939-0.397
	c0.202-0.265,0.293-0.599,0.293-0.989v-0.334c0-0.668-0.265-1.114-0.787-1.302c-0.16-0.056-0.39-0.077-0.703-0.077h-18.149
	c-2.819,0-4.937-1.351-6.313-4.066c-0.321-0.988-0.481-1.74-0.481-2.283v-0.334c0.014-0.049,0.042-0.07,0.077-0.07h25.452
	c1.155,0,2.241,0.188,3.272,0.584c1.03,0.39,1.928,0.947,2.693,1.664c0.779,0.71,1.386,1.553,1.846,2.534
	c0.452,0.982,0.682,2.061,0.682,3.244v0.717c0,2.652-1.226,4.824-3.669,6.53c-0.55,0.32-1.086,0.578-1.602,0.759
	c-0.515,0.181-1.03,0.32-1.545,0.411c-0.516,0.097-1.044,0.146-1.602,0.181c-0.55,0.021-1.142,0.035-1.782,0.035h-15.148
	c-0.627,0-0.94,0.313-0.94,0.954c-0.048,0-0.069,0.404-0.069,1.197v0.829h18.052c1.991,0,3.537,0.466,4.637,1.385
	c1.769,1.441,2.652,3.223,2.652,5.333l-0.076,0.042h-32.853c-0.049-0.007-0.077-0.028-0.077-0.069V107.667z"/>
</svg>
