<?xml version="1.0" encoding="utf-8"?>
<!-- Generator: Adobe Illustrator 13.0.0, SVG Export Plug-In . SVG Version: 6.00 Build 14948)  -->
<svg version="1.2" baseProfile="tiny" id="Layer_1" xmlns="http://www.w3.org/2000/svg" xmlns:xlink="http://www.w3.org/1999/xlink"
	 x="0px" y="0px" width="786.807px" height="266.014px" viewBox="0 0 786.807 266.014" xml:space="preserve">
<path fill-rule="evenodd" d="M654.394,0c9.058,0,16.404,7.346,16.404,16.404s-7.347,16.404-16.404,16.404
	s-16.403-7.346-16.403-16.404S645.336,0,654.394,0"/>
<path fill-rule="evenodd" d="M306.322,71.081l29.205-21.59c6.45-4.702,13.43-8.294,22.226-8.294h32.661
	c-0.799,0.61-2.127,1.631-3.969,3.042c-1.833,1.396-4.474,3.467-7.93,6.192c-2.035,1.521-4.448,3.343-7.257,5.473
	c-2.809,2.116-5.785,4.356-8.855,6.722c-7.585,5.745-14.337,8.455-24.454,8.455H306.322z"/>
<path d="M389.554,61.252c0-4.334,1.653-9,5.686-13.312c3.262-3.489,6.399-5.113,8.683-5.561c1.962-0.779,3.864-1.183,5.687-1.183
	c29.59,0,59.187,0,88.777,0c0,1.22,0,2.439,0,3.659c0,3.673-1.374,7.5-4.144,11.511c-1.396,1.733-2.792,3.151-4.188,4.275
	c-1.374,1.116-2.828,1.983-4.393,2.615c-1.543,0.654-3.232,1.102-5.032,1.374c-1.814,0.279-3.842,0.404-6.083,0.404
	c-19.842,0-39.279,0-59.121,0c-11.908,0-19.908,3.145-25.873,8.507C389.554,69.442,389.554,65.351,389.554,61.252"/>
<path fill-rule="evenodd" d="M681.62,200.02c0-4.886,2.071-9.808,6.191-14.817c4.754-5.113,11.006-7.669,18.829-7.669
	c21.457,0,39.265,0,60.723,0c0,3.996-0.508,7.449-1.543,10.313c-1.036,2.865-2.645,5.37-4.878,7.457
	c-3.13,2.916-6.28,4.635-9.366,5.458c-1.749,0.462-4.518,0.8-8.411,0.8c-12.878,0-22.104,0-34.982,0c0,2.844,0,26.953,0,29.796
	l0.074,2.579c-8.837,0-17.8,0-26.637,0C681.62,222.631,681.62,211.325,681.62,200.02 M681.62,165.235
	c0-4.334,1.653-8.999,5.686-13.312c3.262-3.488,6.398-5.112,8.683-5.561c1.962-0.778,3.864-1.183,5.687-1.183
	c29.59,0,55.544,0,85.133,0c0,1.22,0,2.438,0,3.659c0,3.673-1.285,7.565-4.143,11.511c-1.3,1.799-2.799,3.151-4.188,4.275
	c-1.374,1.109-2.835,1.976-4.393,2.614c-1.543,0.64-3.239,1.103-5.032,1.374c-1.814,0.272-3.843,0.404-6.082,0.404
	c-19.843,0-35.637,0-55.479,0c-11.907,0-19.908,3.145-25.872,8.507C681.62,173.427,681.62,169.334,681.62,165.235z M640.553,130.139
	V57.584c0-14.125,15.408-16.838,27.689-16.838v89.392H640.553z M549.912,144.799h15.692c5.296,0,10.391,2.183,15.306,6.509
	l59.762,46.874v-28.905h-0.118v-24.622h27.689v24.622h-0.083v64.3h-15.704c-5.42,0-10.865-2.452-16.338-7.354
	c-0.035-0.043-1.242-0.97-3.598-2.79c-2.388-1.813-5.973-4.586-10.766-8.303c-4.804-3.722-10.887-8.386-18.232-14.051
	c-7.346-5.644-16.008-12.365-25.996-20.121h-0.136v52.619h-27.479V144.799z M507.789,104.359c0-11.424,8.72-17.771,26.563-17.771
	h45.062c3.21,0,5.788-0.874,7.728-2.578c1.938-1.711,2.901-4.18,2.901-7.397v-1.734c0-4.834-2.255-7.948-6.743-9.461
	c-0.632-0.214-1.491-0.382-2.601-0.382h-46.347c-7.096,0-12.231-1.432-15.662-3.908c-1.499-1.08-3.019-2.116-4.37-3.489
	c-1.337-1.396-2.498-2.938-3.467-4.651c-0.971-1.71-1.735-3.57-2.264-5.575c-0.529-1.991-0.801-4.063-0.801-6.214h73.226
	c5.076,0,9.792,0.8,14.142,2.409c4.349,1.602,8.14,3.931,11.328,6.928c3.21,3.02,5.707,6.7,7.522,11.034
	c1.813,4.327,2.725,9.189,2.725,14.604c0,12.341-5.135,21.892-15.404,28.679h-0.132v0.125l23.97,24.874v0.125h-35.122l-19.063-19.57
	c-13.987,0-22.641,0-36.628,0c0,6.501,0,13.002,0,19.503c-8.853,0-17.711,0-26.563,0
	C507.789,118.625,507.789,115.642,507.789,104.359z M389.554,96.036c0-4.885,2.071-9.808,6.192-14.817
	c4.754-5.113,11.005-7.669,18.828-7.669c21.458,0,42.909,0,64.367,0c0,3.996-0.508,7.441-1.543,10.313
	c-1.035,2.873-2.659,5.349-4.878,7.457c-3.151,2.901-6.26,4.694-9.366,5.458c-1.733,0.529-4.518,0.8-8.411,0.8
	c-12.878,0-25.748,0-38.625,0c0,2.843,0,5.694,0,8.536c27.422,0,54.846,0,82.269,0c0,1.264,0,2.521,0,3.784
	c0,4.334-1.881,8.771-5.687,13.311c-3.512,3.254-6.405,5.113-8.668,5.561c-1.984,0.779-3.886,1.183-5.701,1.183
	c-29.589,0-59.188,0-88.777,0C389.554,118.646,389.554,107.341,389.554,96.036z M270.702,51.298c0-1.374,0.271-2.644,0.8-3.849
	c0.529-1.197,1.271-2.255,2.197-3.188c0.933-0.925,2.005-1.668,3.21-2.196c1.227-0.53,2.498-0.802,3.828-0.802l16.529-0.065v32.499
	c16.477,0,31.786,9.33,43.849,19.826c2.96,2.557,5.958,5.158,9.021,7.817c3.041,2.658,6.215,5.406,9.468,8.242
	c3.254,2.829,6.7,5.789,10.336,8.874c2.976,2.601,5.576,4.863,7.794,6.766c2.24,1.88,4.187,3.482,5.833,4.753h-38.141
	c-0.83-0.529-1.865-1.308-3.129-2.329c-1.249-1.014-2.556-2.152-3.93-3.424c-0.125,0-5.472-4.539-16.044-13.626
	c-3.085-2.725-5.575-4.885-7.478-6.486c-1.903-1.631-3.02-2.512-3.335-2.667c-2.116-1.579-4.356-2.58-6.766-3.041
	c-2.388-0.441-4.877-0.677-7.478-0.677v32.25h-26.563V51.298z M452.371,143.917l0.146-0.008h0.352h0.191h0.316h40.116h0.316H494
	h0.352l0.147,0.008c11.372,0.132,21.679,3.533,30.266,10.901c9.778,8.39,14.369,19.96,14.369,33.748v2.139
	c0,11.188-3.746,21.192-11.644,29.413c-11.21,11.666-25.917,13.841-41.483,13.841H317.775c-11.07,0-21.304-2.969-29.84-9.852
	c-10.601-8.551-15.53-19.887-15.53-33.051v-2.6c0-11.644,3.916-22.098,12.569-30.575c8.933-8.749,20.187-12.701,32.925-12.701
	h85.436v1.183c0,5.804-2.506,11.387-7.736,16.462c-1.447,1.404-3.026,2.388-4.458,3.212c-1.433,0.814-2.917,1.476-4.393,1.902
	c-1.477,0.433-3.042,0.72-4.65,0.866l-0.999,0.081h-50.629v0.132h-12.062c-8.706,0-14.773,4.099-18.153,12.319
	c-0.867,2.477-1.285,5.157-1.285,8.052v0.484c0,10.652,4.914,17.536,14.919,19.886c2.02,0.47,3.57,0.36,4.519,0.36
	c58.467-0.154,116.148-0.867,174.454-0.353h0.016l0.814-0.015l0.096-0.008h0.309c8.177-0.345,14.193-4.231,17.168-11.938
	c1.264-3.291,1.44-4.737,1.44-7.089c0-11.43-4.306-18.96-13.062-22.038c-1.499-0.514-3.026-0.764-4.555-0.867h-0.397l-1.079-0.059
	h-0.066H493.5h-0.065l-0.14-0.007H493.2h-0.009h-0.102h-0.008h-0.103h-0.008h-0.095h-0.016h-38.853h-0.015h-0.096h-0.008h-0.103
	h-0.008h-0.102h-0.008h-0.095l-0.141,0.007h-0.066h-0.044h-0.066l-1.079,0.059h-0.397c-1.521,0.104-3.063,0.346-4.554,0.867
	c-8.757,3.078-13.062,10.608-13.062,22.038c0,2.352,0.176,3.798,1.439,7.089c0.581,1.491,1.271,2.843,2.072,4.056h-28.584
	c-0.91-3.563-1.359-7.288-1.359-11.158v-2.139c0-13.804,4.591-25.358,14.369-33.748C430.691,147.45,440.998,144.057,452.371,143.917
	z"/>
<path d="M753.129,78.221c2.625,0,4.477-1.163,5.549-3.481c0.362-0.891,0.536-1.873,0.536-2.938c0-2.959-1.267-4.95-3.808-5.953
	c-0.731-0.244-1.497-0.362-2.277-0.362h-8.326c-1.009,0.021-1.886,0.195-2.645,0.522c-0.767,0.32-1.399,0.773-1.915,1.337
	c-0.508,0.557-0.891,1.232-1.148,2.012c-0.258,0.773-0.383,1.643-0.383,2.583c0,2.875,1.26,4.845,3.773,5.91
	c0.793,0.251,1.566,0.369,2.317,0.369H753.129z M731.034,71.398c0-3.982,1.622-7.317,4.858-9.976
	c2.618-1.845,5.515-2.757,8.688-2.757h8.688c4.031,0,7.407,1.33,10.144,3.989c2.318,2.513,3.48,5.472,3.48,8.855v0.815
	c0,3.738-1.434,6.913-4.302,9.531c-2.701,2.13-5.785,3.202-9.245,3.202h-8.766c-3.32,0-6.308-0.996-8.945-2.979
	c-3.063-2.597-4.602-5.89-4.602-9.907V71.398z M694.254,76.738c0-2.931,1.044-5.11,3.133-6.537c1.427-1.121,3.48-1.685,6.161-1.685
	h15.907c0.432,0,0.745-0.132,0.94-0.397c0.194-0.265,0.292-0.599,0.292-0.988v-0.334c0-0.668-0.265-1.114-0.786-1.302
	c-0.16-0.056-0.391-0.077-0.704-0.077h-18.148c-2.819,0-4.93-1.351-6.314-4.065c-0.32-0.982-0.48-1.741-0.48-2.284v-0.334
	c0.014-0.049,0.042-0.07,0.076-0.07h25.452c1.156,0,2.242,0.188,3.272,0.585c1.03,0.39,1.929,0.947,2.701,1.664
	c0.772,0.71,1.378,1.552,1.838,2.534c0.452,0.981,0.683,2.06,0.683,3.244v0.717c0,2.652-1.226,4.825-3.669,6.53
	c-0.55,0.32-1.086,0.578-1.602,0.759c-0.515,0.181-1.03,0.32-1.546,0.411c-0.515,0.098-1.044,0.153-1.601,0.181
	c-0.55,0.021-1.142,0.035-1.782,0.035h-15.148c-0.627,0-0.94,0.313-0.94,0.954c-0.049,0-0.069,0.404-0.069,1.197v0.829h18.052
	c1.991,0,3.536,0.466,4.637,1.378c1.768,1.448,2.652,3.23,2.652,5.34l-0.077,0.042h-32.853c-0.048-0.007-0.076-0.028-0.076-0.077
	V76.738z"/>
<path d="M759.58,109.185c0.96,0,1.434-0.543,1.434-1.636c0-0.453-0.133-0.877-0.418-1.267c-0.223-0.258-0.745-0.383-1.566-0.383
	h-17.544v1.267c0,1.1,0.244,1.727,0.738,1.88c0.229,0.098,0.509,0.139,0.829,0.139H759.58z M733.863,97.622
	c0-2.631,1.141-4.783,3.411-6.425c1.678-1.073,3.46-1.602,5.339-1.602h23.852c0.049,0,0.069,0.035,0.069,0.111
	c0,0.954-0.181,1.838-0.536,2.66c-0.369,0.814-0.855,1.524-1.462,2.116c-0.619,0.592-1.344,1.058-2.165,1.399
	c-0.828,0.341-1.713,0.501-2.666,0.501h-16.652c-0.787,0-1.261,0.265-1.421,0.794c-0.098,0.223-0.146,0.633-0.146,1.239v0.703
	h18.095c3.683,0,6.369,1.414,8.082,4.247c0.634,1.225,0.954,2.52,0.954,3.885v0.751c0,2.291-0.926,4.282-2.792,5.959
	c-1.796,1.351-3.725,2.033-5.785,2.033h-17.397c-3.05,0-5.527-1.211-7.429-3.634c-0.897-1.372-1.35-2.841-1.35-4.407V97.622z
	 M694.876,107.667c0-2.931,1.044-5.11,3.133-6.537c1.428-1.121,3.48-1.685,6.161-1.685h15.907c0.433,0,0.745-0.132,0.94-0.397
	c0.202-0.265,0.292-0.599,0.292-0.989v-0.334c0-0.668-0.265-1.114-0.786-1.302c-0.16-0.056-0.391-0.077-0.703-0.077h-18.149
	c-2.819,0-4.936-1.351-6.314-4.065c-0.32-0.989-0.48-1.741-0.48-2.284v-0.334c0.014-0.048,0.042-0.069,0.076-0.069h25.452
	c1.156,0,2.242,0.188,3.272,0.585c1.03,0.39,1.929,0.947,2.694,1.664c0.779,0.71,1.386,1.552,1.845,2.534
	c0.452,0.981,0.683,2.061,0.683,3.244v0.717c0,2.652-1.226,4.824-3.669,6.53c-0.55,0.32-1.086,0.578-1.602,0.758
	c-0.515,0.181-1.03,0.32-1.545,0.411c-0.516,0.097-1.045,0.146-1.602,0.181c-0.55,0.021-1.142,0.035-1.782,0.035H703.55
	c-0.626,0-0.939,0.313-0.939,0.954c-0.049,0-0.069,0.404-0.069,1.198v0.828h18.052c1.991,0,3.536,0.466,4.637,1.385
	c1.768,1.441,2.652,3.224,2.652,5.333l-0.077,0.042h-32.853c-0.048-0.007-0.076-0.028-0.076-0.069V107.667z"/>
<path d="M144.506,72.202h-26.314H48.962c-11.745,1.581-19.78,4.608-23.15,9.456c-3.037,4.368-2.329,11.557,2.907,22.155l11.6,20.809
	c-5.074,3.76-10.125,7.932-14.887,12.443L12.06,113.077c-0.146-0.241-0.284-0.489-0.411-0.746
	c-8.716-17.598-8.721-31.229-1.525-41.58c6.673-9.599,19.216-15.135,36.417-17.445c0.67-0.149,1.367-0.229,2.082-0.229h69.569
	h22.651C142.575,59.417,143.754,65.95,144.506,72.202 M161.734,186.205l9.798-17.575l34.508-61.899
	c4.738-11.694,6.297-20.705,3.85-26.333c-2.048-4.708-8.123-7.571-19.057-8.207v0.011h-23.409
	c-0.654-6.25-1.669-12.716-3.118-19.124h26.527v0.025c0.161,0,0.323,0.004,0.485,0.013c19.366,0.996,30.933,7.892,36.053,19.663
	c4.699,10.808,2.968,24.891-3.851,41.564c-0.154,0.391-0.335,0.777-0.545,1.155l-34.785,62.396l-8.014,14.376
	C173.807,190.67,167.531,188.528,161.734,186.205z M120.04,0.907c12.439-0.025,23.485,8.582,31.631,23.098
	c7.044,12.552,12.17,30.028,14.072,50.068c1.062,11.194,0.964,21.425-0.22,31.006l-0.084,0.684l-0.03-0.012
	c-6.004-2.332-12.199-4.167-18.502-5.49l-0.036-0.008c0.75-7.538,0.731-15.599-0.103-24.388
	c-1.642-17.299-5.92-32.125-11.756-42.522c-4.719-8.409-10.002-13.397-14.973-13.388v0.038c-4.855,0-9.941,4.777-14.56,12.832
	c-2.925,5.101-5.492,11.316-7.593,18.396H78.091c2.752-10.783,6.435-20.263,10.805-27.883C96.983,9.235,107.729,0.87,120.04,0.87
	V0.907z M94.732,101.514c1.248-0.174,2.487-0.339,3.719-0.491c13.384-2.083,29.035-2.078,42.415,0.023
	c18.123,2.844,35.362,9.831,53.574,22.677l-9.344,16.762c-0.384-0.279-0.771-0.557-1.162-0.834
	c-15.876-11.291-30.647-17.373-45.981-19.781c-11.861-1.861-24.991-1.434-36.902,0.026c-0.801,0.128-1.601,0.266-2.398,0.413
	C96.773,114.169,95.468,107.891,94.732,101.514z M104.221,171.349c-0.8-0.902-1.586-1.815-2.358-2.74
	c-9.18-10.993-16.229-22.545-21.212-36.13c-6.614-18.035-9.062-37.79-6.721-58.419h19.25c-0.047,0.371-0.094,0.741-0.139,1.113
	v0.038c-2.195,17.997-0.164,35.145,5.538,50.694c3.918,10.685,10.684,21.78,17.925,30.453c0.592,0.71,1.194,1.411,1.806,2.105
	C113.902,163.016,109.156,167.355,104.221,171.349z M218.99,190.734c2.495-4.3,0.814-11.371-4.109-19.665
	c-2.978-5.017-7.07-10.244-12.14-15.461l9.628-17.27c8.039,7.615,14.46,15.462,18.947,23.02
	c8.496,14.309,10.425,28.178,4.185,38.938l-0.017-0.01c-6.164,10.648-18.75,15.766-34.949,15.719
	c-14.343-0.041-32.003-4.114-50.365-11.925c-10.604-4.511-20.24-10.157-28.838-16.777c5.324-3.792,9.512-8.544,14.184-13.162
	c6.606,4.752,14.198,9.012,22.125,12.384c16.066,6.835,31.094,10.397,42.895,10.432c9.327,0.026,16.032-1.986,18.456-6.185V190.734z
	 M141.623,122.417c6.465,1.322,12.519,3.235,18.588,5.815c-0.485,1.42-0.998,2.832-1.538,4.232
	c-8.275,21.466-24.753,45.777-45.019,57.924c-7.506,5.303-15.738,9.899-24.654,13.691c-0.611,0.26-1.222,0.516-1.83,0.768
	c-3.121-5.598-6.24-11.194-9.361-16.791c1.233-0.491,2.473-1.001,3.721-1.532C109.336,174.695,131.846,151.216,141.623,122.417z
	 M37.127,215.994c-0.234-0.004-0.468-0.009-0.701-0.016 M37.878,216.004c-0.241-0.002-0.481-0.005-0.721-0.009 M38.635,216.005
	c-0.248,0.001-0.495,0.001-0.741-0.001h-0.015c-0.241-0.002-0.481-0.005-0.721-0.009l-0.03-0.001
	c-0.234-0.004-0.468-0.009-0.701-0.016l-0.045-0.001l-0.027-0.001c-0.235-0.006-0.468-0.014-0.702-0.022l-0.029-0.002
	c-0.474-0.018-0.943-0.04-1.41-0.068l-0.037-0.002l-0.09-0.006c-0.204-0.012-0.408-0.025-0.61-0.04l-0.045-0.003
	c-0.212-0.015-0.424-0.031-0.635-0.049l-0.104-0.008c-0.199-0.017-0.398-0.034-0.596-0.053l-0.146-0.014
	c-0.183-0.017-0.366-0.035-0.548-0.054l-0.207-0.022l-0.435-0.048l-0.276-0.032l-0.468-0.058l-0.175-0.022l-0.481-0.065l-0.281-0.04
	l-0.167-0.024l-0.167-0.024l-0.045-0.007l-0.287-0.045l-0.166-0.025l-0.165-0.027l-0.455-0.076l-0.039-0.007l-0.164-0.028
	c-10.767-1.891-19.083-6.776-23.736-14.817l-0.017,0.01c-6.241-10.76-4.312-24.629,4.184-38.938
	c7.364-12.402,19.937-25.59,36.326-37.246c9.658-6.868,19.038-12.086,28.416-15.91c0.94,6.384,2.361,12.702,4.281,18.904
	c-7.086,3.154-14.243,7.284-21.64,12.544c-14.177,10.081-24.875,21.191-30.947,31.418c-4.924,8.294-6.604,15.365-4.11,19.665v0.037
	c0.563,0.975,1.356,1.831,2.359,2.571l0.096,0.069l0.082,0.06l0.106,0.074l0.1,0.067l0.08,0.054l0.007,0.005l0.167,0.108
	l0.105,0.066l0.107,0.066l0.082,0.049l0.13,0.076l0.078,0.046c0.066,0.038,0.132,0.076,0.2,0.112l0.012,0.007l0.009,0.005
	l0.201,0.108l0.077,0.041l0.146,0.074l0.086,0.043l0.129,0.063l0.158,0.075l0.162,0.076l0.074,0.033l0.165,0.073l0.079,0.034
	l0.201,0.086l0.032,0.013l0.027,0.012l0.232,0.094l0.053,0.021l0.206,0.079l0.062,0.023l0.198,0.073l0.079,0.028l0.024,0.009
	l0.221,0.077l0.017,0.006l0.012,0.004l0.26,0.087l0.047,0.016l0.229,0.072l0.069,0.022l0.274,0.082l0.005,0.002l0.272,0.078
	l0.101,0.028l0.175,0.048l0.106,0.028c0.29,0.076,0.585,0.149,0.887,0.218l0.08,0.018l0.239,0.054l0.051,0.011l0.056,0.012
	l0.259,0.054l0.021,0.004l0.318,0.063l0.061,0.012l0.259,0.048l0.078,0.014l0.322,0.056l0.004,0.001l0.315,0.051l0.1,0.016
	l0.25,0.038l0.086,0.013l0.246,0.035l0.077,0.011l0.032,0.004l0.283,0.038l0.054,0.007l0.057,0.006l0.285,0.035l0.054,0.007
	l0.311,0.034l0.044,0.006l0.061,0.006l0.294,0.03l0.027,0.003l0.366,0.034l0.048,0.004l0.3,0.026l0.063,0.005l0.093,0.008
	l0.302,0.022h0.002l0.307,0.021l0.09,0.006l0.065,0.004l0.317,0.02l0.037,0.002l0.392,0.021l0.033,0.001l0.316,0.015l0.062,0.002
	l0.081,0.003l0.282,0.011l0.104,0.003l0.323,0.01l0.046,0.001l0.066,0.002l0.326,0.007l0.032,0.001l0.296,0.005h0.051l0.194,0.002
	l0.085,0.001l0.232,0.002h0.1h0.335c5.103-0.015,10.809-0.689,16.941-2.003l9.638,17.287
	C55.627,214.71,46.618,215.982,38.635,216.005z M135.474,233.312l15.082-27.053c5.768,2.41,11.906,4.641,18.205,6.489
	l-16.628,29.826c-0.146,0.299-0.307,0.593-0.486,0.882c-10.483,16.816-22.095,23.711-34.639,22.402
	c-11.673-1.219-22.778-9.942-33.431-24.598l0.014-0.01c-0.22-0.305-0.425-0.625-0.612-0.961l-34.785-62.396L36.95,157.725
	c4.52-4.746,9.536-9.126,14.57-13.01l13.332,23.915l34.424,61.75c7.35,10.042,13.972,15.909,19.674,16.504
	c4.892,0.51,10.348-3.666,16.486-13.513L135.474,233.312z"/>
</svg>
