<?xml version="1.0" encoding="utf-8"?>
<!-- Generator: Adobe Illustrator 13.0.0, SVG Export Plug-In . SVG Version: 6.00 Build 14948)  -->
<svg version="1.2" baseProfile="tiny" id="Layer_1" xmlns="http://www.w3.org/2000/svg" xmlns:xlink="http://www.w3.org/1999/xlink"
	 x="0px" y="0px" width="298.947px" height="235.728px" viewBox="0 0 298.947 235.728" xml:space="preserve">
<path fill="#986C32" d="M239.27,79.493c10.674,0,18.207-4.724,22.573-14.147c1.456-3.626,2.171-7.609,2.171-11.95
	c0-12.028-5.158-20.097-15.475-24.183c-2.988-0.996-6.077-1.481-9.27-1.481h-33.835c-4.086,0.102-7.661,0.792-10.75,2.119
	c-3.116,1.328-5.695,3.141-7.764,5.439c-2.068,2.272-3.626,5.005-4.673,8.171s-1.558,6.69-1.558,10.521
	c0,11.67,5.107,19.688,15.321,24.003c3.243,1.021,6.385,1.507,9.423,1.507H239.27z M149.486,51.761
	c0-16.19,6.588-29.724,19.739-40.551C179.848,3.729,191.62,0,204.542,0h35.315c16.368,0,30.106,5.414,41.215,16.241
	c9.423,10.214,14.146,22.216,14.146,35.979v3.294c0,15.219-5.821,28.115-17.491,38.738c-10.98,8.682-23.493,13.023-37.563,13.023
	h-35.622c-13.509,0-25.639-4.035-36.363-12.104c-12.461-10.546-18.692-23.953-18.692-40.271V51.761z M0,73.467
	c0-11.925,4.238-20.761,12.716-26.558c5.797-4.571,14.147-6.869,25.051-6.869h64.656c1.737,0,3.014-0.537,3.805-1.609
	c0.792-1.073,1.2-2.426,1.2-4.01v-1.353c0-2.732-1.073-4.52-3.217-5.312c-0.639-0.204-1.583-0.307-2.835-0.307H27.604
	c-11.466,0-20.02-5.49-25.664-16.521C0.638,6.946,0,3.856,0,1.66V0.307C0.051,0.102,0.152,0,0.306,0h103.446
	c4.698,0,9.116,0.792,13.278,2.4c4.188,1.583,7.839,3.831,10.98,6.742c3.141,2.885,5.618,6.333,7.482,10.316
	c1.839,3.983,2.758,8.376,2.758,13.177v2.911c0,10.776-4.954,19.611-14.887,26.557c-2.247,1.302-4.417,2.324-6.511,3.064
	c-2.094,0.741-4.188,1.302-6.282,1.685c-2.094,0.383-4.265,0.613-6.512,0.715c-2.248,0.103-4.648,0.154-7.252,0.154H35.239
	c-2.553,0-3.83,1.276-3.83,3.881c-0.179,0-0.281,1.634-0.281,4.852v3.371h73.39c8.069,0,14.351,1.889,18.845,5.618
	c7.176,5.873,10.776,13.125,10.776,21.706l-0.306,0.153H0.306C0.102,107.276,0,107.199,0,106.995V73.467z"/>
<path fill="#986C32" d="M242.999,207.919c10.674,0,18.206-4.724,22.573-14.146c1.455-3.626,2.171-7.609,2.171-11.951
	c0-12.027-5.158-20.097-15.475-24.182c-2.988-0.996-6.078-1.481-9.27-1.481h-33.835c-4.086,0.102-7.661,0.792-10.751,2.119
	c-3.115,1.328-5.694,3.142-7.763,5.439c-2.068,2.272-3.627,5.005-4.673,8.172c-1.047,3.166-1.558,6.69-1.558,10.521
	c0,11.669,5.107,19.688,15.32,24.004c3.244,1.021,6.385,1.506,9.424,1.506H242.999z M153.214,180.188
	c0-16.189,6.588-29.724,19.739-40.551c10.623-7.481,22.395-11.211,35.315-11.211h35.316c16.368,0,30.106,5.414,41.215,16.241
	c9.423,10.215,14.146,22.216,14.146,35.979v3.295c0,15.219-5.822,28.114-17.492,38.737c-10.98,8.683-23.492,13.023-37.563,13.023
	h-35.622c-13.508,0-25.638-4.034-36.362-12.104c-12.462-10.546-18.692-23.952-18.692-40.27V180.188z M94.252,193.62v-30.821
	l-42.338,30.693v0.128H94.252z M0,209.758c0-9.27,4.8-17.007,14.427-23.187c23.646-17.772,41.598-31.205,53.881-40.321
	c12.257-9.142,18.82-13.942,19.662-14.453c4.137-2.247,8.325-3.371,12.513-3.371h24.233c0.204,0.052,0.306,0.153,0.306,0.307v64.938
	h12.921c0.204,0.052,0.306,0.153,0.306,0.307v26.404c0,0.204-0.102,0.307-0.306,0.307h-12.921v14.733
	c0,0.205-0.102,0.281-0.306,0.307H94.559c-0.205-0.025-0.307-0.102-0.307-0.307v-14.733H0.306c-0.204,0-0.306-0.103-0.306-0.307
	V209.758z"/>
</svg>
