<?xml version="1.0" encoding="utf-8"?>
<!-- Generator: Adobe Illustrator 13.0.0, SVG Export Plug-In . SVG Version: 6.00 Build 14948)  -->
<svg version="1.2" baseProfile="tiny" id="Layer_1" xmlns="http://www.w3.org/2000/svg" xmlns:xlink="http://www.w3.org/1999/xlink"
	 x="0px" y="0px" width="295.5px" height="235.729px" viewBox="0 0 295.5 235.729" xml:space="preserve">
<path fill="#986C32" d="M239.271,79.493c10.674,0,18.207-4.724,22.573-14.147c1.455-3.626,2.171-7.609,2.171-11.951
	c0-12.027-5.158-20.096-15.475-24.182c-2.988-0.996-6.078-1.481-9.27-1.481h-33.835c-4.086,0.102-7.661,0.791-10.751,2.12
	c-3.115,1.328-5.694,3.141-7.763,5.438c-2.068,2.273-3.626,5.006-4.673,8.172c-1.047,3.167-1.558,6.69-1.558,10.521
	c0,11.669,5.107,19.688,15.321,24.003c3.243,1.021,6.384,1.506,9.423,1.506H239.271z M149.486,51.761
	c0-16.19,6.589-29.724,19.739-40.551C179.849,3.729,191.62,0,204.541,0h35.316c16.368,0,30.106,5.414,41.215,16.241
	c9.423,10.214,14.146,22.216,14.146,35.98v3.294c0,15.219-5.822,28.115-17.492,38.738c-10.979,8.682-23.492,13.023-37.563,13.023
	h-35.623c-13.508,0-25.638-4.035-36.362-12.104c-12.462-10.546-18.692-23.953-18.692-40.27V51.761z M0,73.466
	c0-11.925,4.239-20.761,12.717-26.557c5.797-4.571,14.146-6.869,25.05-6.869h64.657c1.737,0,3.013-0.537,3.805-1.609
	c0.792-1.072,1.2-2.426,1.2-4.009v-1.353c0-2.732-1.072-4.52-3.217-5.312c-0.639-0.205-1.583-0.307-2.834-0.307H27.604
	c-11.465,0-20.02-5.49-25.664-16.521C0.638,6.946,0,3.856,0,1.66V0.307C0.051,0.102,0.153,0,0.306,0h103.446
	c4.698,0,9.116,0.792,13.278,2.4c4.188,1.583,7.839,3.83,10.98,6.742c3.141,2.885,5.618,6.333,7.482,10.316
	c1.839,3.983,2.757,8.375,2.757,13.176v2.911c0,10.776-4.953,19.611-14.887,26.557c-2.247,1.302-4.417,2.323-6.511,3.064
	c-2.095,0.74-4.188,1.302-6.282,1.685c-2.094,0.383-4.265,0.613-6.512,0.715c-2.247,0.103-4.647,0.154-7.252,0.154H35.239
	c-2.554,0-3.831,1.276-3.831,3.881c-0.178,0-0.281,1.634-0.281,4.852v3.371h73.39c8.069,0,14.352,1.89,18.845,5.618
	c7.176,5.873,10.776,13.125,10.776,21.706l-0.307,0.153H0.306C0.102,107.276,0,107.199,0,106.995V73.466z"/>
<path fill="#986C32" d="M264.602,169.387v-5.158c0-1.303-0.076-2.451-0.23-3.473c-0.127-1.021-0.434-1.89-0.894-2.579
	c-0.434-0.716-1.098-1.252-1.94-1.609c-0.843-0.383-1.966-0.562-3.37-0.562h-67.032c-2.579,0-4.366,1.072-5.312,3.218
	c-0.179,0.536-0.331,1.098-0.408,1.634c-0.077,0.563-0.128,1.099-0.179,1.66c0,4.571,2.222,6.869,6.665,6.869H264.602z
	 M258.167,208.099c2.987,0,4.877-0.919,5.617-2.758c0.562-0.715,0.817-2.477,0.817-5.312v-2.859h-69.202
	c-10.571,0-18.36-1.405-23.416-4.265c-7.482-3.831-12.794-9.78-15.935-17.875c-1.2-3.983-1.787-7.687-1.787-11.058v-2.937
	c0-4.775,0.97-9.167,2.885-13.15c1.915-4.009,4.495-7.431,7.712-10.291c3.218-2.86,6.92-5.107,11.134-6.742
	c4.213-1.607,8.605-2.426,13.202-2.426h70.861c4.725,0,9.219,0.792,13.483,2.35c4.265,1.584,8.044,3.806,11.313,6.665
	c3.269,2.86,5.848,6.308,7.763,10.316c1.94,4.035,2.886,8.503,2.886,13.433v41.903c0,4.929-0.971,9.423-2.911,13.432
	c-1.94,4.01-4.546,7.432-7.788,10.291c-3.244,2.835-6.997,5.031-11.287,6.563c-4.29,1.557-8.784,2.323-13.458,2.323h-96.959
	c-0.204,0-0.307-0.102-0.307-0.307v-0.894c0-8.529,4.035-15.857,12.13-21.986c4.725-2.937,9.934-4.418,15.628-4.418H258.167z
	 M0,201.895c0-11.926,4.239-20.762,12.717-26.558c5.797-4.571,14.146-6.869,25.05-6.869h64.657c1.737,0,3.013-0.537,3.805-1.609
	s1.2-2.426,1.2-4.009v-1.354c0-2.732-1.072-4.521-3.217-5.312c-0.639-0.204-1.583-0.307-2.834-0.307H27.604
	c-11.465,0-20.02-5.49-25.664-16.521c-1.302-3.983-1.94-7.073-1.94-9.27v-1.354c0.051-0.204,0.153-0.307,0.306-0.307h103.446
	c4.698,0,9.116,0.792,13.278,2.4c4.188,1.584,7.839,3.831,10.98,6.742c3.141,2.886,5.618,6.333,7.482,10.316
	c1.839,3.983,2.757,8.375,2.757,13.176v2.911c0,10.776-4.953,19.611-14.887,26.558c-2.247,1.302-4.417,2.323-6.511,3.064
	c-2.095,0.741-4.188,1.303-6.282,1.685c-2.094,0.384-4.265,0.613-6.512,0.716s-4.647,0.153-7.252,0.153H35.239
	c-2.554,0-3.831,1.276-3.831,3.881c-0.178,0-0.281,1.635-0.281,4.853v3.371h73.39c8.069,0,14.352,1.889,18.845,5.617
	c7.176,5.873,10.776,13.125,10.776,21.705l-0.307,0.153H0.306C0.102,235.703,0,235.627,0,235.422V201.895z"/>
</svg>
