<svg width="240" height="266" viewBox="0 0 240 266" fill="none" xmlns="http://www.w3.org/2000/svg">
<path d="M144.506 71.354H118.192H48.962C37.217 72.934 29.182 75.962 25.812 80.81C22.775 85.178 23.483 92.367 28.719 102.965L40.319 123.773C35.245 127.534 30.194 131.705 25.432 136.215L12.06 112.229C11.914 111.988 11.776 111.74 11.649 111.483C2.93301 93.885 2.92801 80.254 10.124 69.903C16.798 60.303 29.34 54.767 46.541 52.458C47.211 52.309 47.908 52.23 48.624 52.23H118.192H140.843C142.575 58.569 143.754 65.103 144.506 71.354ZM161.734 185.357L171.531 167.782L206.039 105.882C210.777 94.189 212.336 85.177 209.89 79.55C207.842 74.842 201.766 71.979 190.832 71.343V71.354H167.423C166.769 65.104 165.754 58.638 164.305 52.23H190.832V52.254C190.993 52.254 191.155 52.258 191.318 52.267C210.684 53.264 222.251 60.159 227.37 71.93C232.07 82.738 230.338 96.821 223.519 113.494C223.365 113.886 223.184 114.271 222.974 114.649L188.19 177.045L180.175 191.422C173.807 189.822 167.531 187.68 161.734 185.357ZM135.474 232.464L150.556 205.41C156.324 207.821 162.462 210.052 168.761 211.9L152.133 241.726C151.988 242.025 151.826 242.319 151.647 242.607C141.164 259.424 129.552 266.318 117.008 265.01C105.335 263.791 94.23 255.068 83.577 240.412L83.592 240.401C83.372 240.096 83.167 239.777 82.98 239.44L48.195 177.044L36.95 156.877C41.47 152.131 46.486 147.751 51.52 143.867L64.852 167.782L99.276 229.531C106.626 239.574 113.247 245.44 118.949 246.035C123.841 246.546 129.297 242.369 135.435 232.523L135.474 232.464Z" fill="#61783E"/>
<path d="M120.04 0.038C132.479 0.013 143.526 8.62 151.671 23.136C158.715 35.689 163.842 53.164 165.743 73.204C166.805 84.398 166.707 94.628 165.523 104.209L165.439 104.893L165.41 104.881C159.406 102.549 153.211 100.714 146.908 99.391L146.873 99.384C147.623 91.846 147.603 83.785 146.769 74.996C145.128 57.697 140.849 42.871 135.013 32.474C130.294 24.065 125.011 19.077 120.04 19.087V19.125C115.185 19.125 110.099 23.902 105.48 31.956C102.555 37.058 99.9883 43.272 97.8873 50.352H78.0913C80.8433 39.569 84.5263 30.089 88.8963 22.469C96.9833 8.366 107.729 0 120.04 0V0.038ZM94.7323 100.645C95.9803 100.471 97.2193 100.307 98.4513 100.154C111.835 98.071 127.486 98.076 140.866 100.177C158.989 103.022 176.228 110.008 194.44 122.855L185.096 139.616C184.712 139.338 184.325 139.06 183.934 138.783C168.058 127.491 153.287 121.409 137.953 119.002C126.092 117.141 112.962 117.567 101.052 119.028C100.251 119.155 99.4513 119.293 98.6533 119.441C96.7733 113.301 95.4683 107.022 94.7323 100.645ZM104.221 170.48C103.421 169.578 102.635 168.665 101.863 167.74C92.6833 156.747 85.6343 145.195 80.6513 131.609C74.0373 113.574 71.5893 93.819 73.9303 73.191H93.1803C93.1333 73.561 93.0863 73.932 93.0413 74.304V74.342C90.8463 92.34 92.8773 109.487 98.5793 125.036C102.498 135.721 109.263 146.816 116.504 155.489C117.096 156.198 117.698 156.9 118.31 157.593C113.902 162.146 109.156 166.487 104.221 170.48ZM218.99 189.865C221.485 185.566 219.805 178.495 214.881 170.201C211.903 165.184 207.811 159.956 202.741 154.74L212.369 137.469C220.408 145.085 226.829 152.932 231.316 160.489C239.812 174.799 241.741 188.667 235.5 199.427L235.483 199.417C229.319 210.065 216.733 215.183 200.534 215.136C186.191 215.094 168.531 211.021 150.169 203.21C139.565 198.7 129.929 193.054 121.331 186.434C126.655 182.641 130.843 177.889 135.515 173.272C142.121 178.024 149.713 182.284 157.64 185.656C173.706 192.491 188.734 196.053 200.535 196.088C209.862 196.114 216.567 194.102 218.991 189.903L218.99 189.865ZM141.623 121.547C148.088 122.869 154.142 124.782 160.211 127.363C159.725 128.783 159.212 130.194 158.673 131.595C150.398 153.062 133.92 177.372 113.654 189.52C106.148 194.823 97.9163 199.418 89.0003 203.21C88.3893 203.471 87.7783 203.726 87.1703 203.978C84.0493 198.381 80.9303 192.785 77.8093 187.187C79.0423 186.697 80.2823 186.186 81.5303 185.656C109.337 173.827 131.846 150.346 141.623 121.547ZM3.67028 199.427C-2.57072 188.666 -0.641723 174.798 7.85528 160.489C15.2193 148.088 27.7923 134.9 44.1803 123.244C53.8383 116.376 63.2183 111.158 72.5963 107.333C73.5363 113.717 74.9573 120.035 76.8773 126.237C69.7913 129.391 62.6343 133.521 55.2373 138.782C41.0603 148.863 30.3623 159.973 24.2903 170.2C19.3663 178.494 17.6863 185.565 20.1803 189.864V189.902C22.6043 194.1 29.3093 196.113 38.6363 196.087C43.7393 196.072 49.4453 195.397 55.5773 194.083L65.2153 211.371C55.6293 213.841 46.6193 215.112 38.6363 215.136C22.4383 215.183 9.85228 210.066 3.68828 199.417L3.67028 199.427Z" fill="#986C32"/>
</svg>
