<?xml version="1.0" encoding="utf-8"?>
<!-- Generator: Adobe Illustrator 13.0.0, SVG Export Plug-In . SVG Version: 6.00 Build 14948)  -->
<svg version="1.2" baseProfile="tiny" id="Layer_1" xmlns="http://www.w3.org/2000/svg" xmlns:xlink="http://www.w3.org/1999/xlink"
	 x="0px" y="0px" width="295.219px" height="235.729px" viewBox="0 0 295.219 235.729" xml:space="preserve">
<path fill="#986C32" d="M239.271,79.493c10.673,0,18.206-4.724,22.573-14.147c1.455-3.626,2.17-7.609,2.17-11.951
	c0-12.027-5.158-20.096-15.475-24.182c-2.987-0.996-6.077-1.481-9.269-1.481h-33.836c-4.085,0.102-7.66,0.791-10.75,2.12
	c-3.115,1.328-5.694,3.141-7.763,5.438c-2.068,2.273-3.627,5.006-4.674,8.172c-1.047,3.167-1.557,6.69-1.557,10.521
	c0,11.669,5.106,19.688,15.32,24.003c3.244,1.021,6.385,1.506,9.423,1.506H239.271z M149.487,51.761
	c0-16.19,6.588-29.724,19.739-40.551C179.848,3.729,191.621,0,204.542,0h35.316c16.368,0,30.106,5.414,41.215,16.241
	c9.423,10.214,14.146,22.216,14.146,35.98v3.294c0,15.219-5.822,28.115-17.492,38.738c-10.98,8.682-23.492,13.023-37.563,13.023
	h-35.623c-13.508,0-25.638-4.035-36.363-12.104c-12.461-10.546-18.691-23.953-18.691-40.27V51.761z M0,73.466
	c0-11.925,4.239-20.761,12.717-26.557c5.797-4.571,14.147-6.869,25.05-6.869h64.657c1.737,0,3.014-0.537,3.805-1.609
	c0.792-1.072,1.2-2.426,1.2-4.009v-1.353c0-2.732-1.072-4.52-3.217-5.312c-0.639-0.205-1.583-0.307-2.835-0.307H27.604
	c-11.466,0-20.02-5.49-25.664-16.521C0.638,6.946,0,3.856,0,1.66V0.307C0.051,0.102,0.153,0,0.307,0h103.445
	c4.698,0,9.116,0.792,13.278,2.4c4.188,1.583,7.839,3.83,10.98,6.742c3.141,2.885,5.618,6.333,7.482,10.316
	c1.839,3.983,2.758,8.375,2.758,13.176v2.911c0,10.776-4.954,19.611-14.887,26.557c-2.247,1.302-4.417,2.323-6.511,3.064
	c-2.094,0.74-4.188,1.302-6.282,1.685c-2.094,0.383-4.265,0.613-6.512,0.715c-2.247,0.103-4.648,0.154-7.252,0.154H35.239
	c-2.553,0-3.83,1.276-3.83,3.881c-0.179,0-0.281,1.634-0.281,4.852v3.371h73.39c8.069,0,14.351,1.89,18.845,5.618
	c7.176,5.873,10.776,13.125,10.776,21.706l-0.306,0.153H0.307C0.103,107.276,0,107.199,0,106.995V73.466z"/>
<path fill="#986C32" d="M156.356,235.575l79.084-79.697h-62.256c-11.466,0-20.021-5.49-25.664-16.521
	c-1.302-3.983-1.941-7.073-1.941-9.27v-1.354c0.051-0.204,0.153-0.307,0.307-0.307h130.769c0.204,0.052,0.307,0.153,0.307,0.307
	v16.981c0,7.584-4.061,14.862-12.13,21.858c-9.831,9.96-20.377,20.633-31.689,31.997c-11.287,11.389-23.314,23.416-36.082,36.158
	h-40.704V235.575z M0,201.895c0-11.926,4.239-20.762,12.717-26.558c5.797-4.571,14.147-6.869,25.05-6.869h64.657
	c1.737,0,3.014-0.537,3.805-1.609s1.2-2.426,1.2-4.009v-1.354c0-2.732-1.072-4.521-3.217-5.312
	c-0.639-0.204-1.583-0.307-2.835-0.307H27.604c-11.466,0-20.02-5.49-25.664-16.521C0.638,135.373,0,132.283,0,130.087v-1.354
	c0.051-0.204,0.153-0.307,0.307-0.307h103.445c4.698,0,9.116,0.792,13.278,2.4c4.188,1.584,7.839,3.831,10.98,6.742
	c3.141,2.886,5.618,6.333,7.482,10.316c1.839,3.983,2.758,8.375,2.758,13.176v2.911c0,10.776-4.954,19.611-14.887,26.558
	c-2.247,1.302-4.417,2.323-6.511,3.064c-2.094,0.741-4.188,1.303-6.282,1.685c-2.094,0.384-4.265,0.613-6.512,0.716
	c-2.247,0.103-4.648,0.153-7.252,0.153H35.239c-2.553,0-3.83,1.276-3.83,3.881c-0.179,0-0.281,1.635-0.281,4.853v3.371h73.39
	c8.069,0,14.351,1.889,18.845,5.617c7.176,5.873,10.776,13.125,10.776,21.705l-0.306,0.153H0.307C0.103,235.703,0,235.627,0,235.422
	V201.895z"/>
</svg>
