<?xml version="1.0" encoding="utf-8"?>
<!-- Generator: Adobe Illustrator 13.0.0, SVG Export Plug-In . SVG Version: 6.00 Build 14948)  -->
<svg version="1.2" baseProfile="tiny" id="Layer_1" xmlns="http://www.w3.org/2000/svg" xmlns:xlink="http://www.w3.org/1999/xlink"
	 x="0px" y="0px" width="295.219px" height="235.728px" viewBox="0 0 295.219 235.728" xml:space="preserve">
<path fill="#986C32" d="M239.271,79.493c10.674,0,18.207-4.724,22.573-14.147c1.455-3.626,2.171-7.61,2.171-11.951
	c0-12.027-5.158-20.097-15.475-24.183c-2.988-0.996-6.078-1.481-9.27-1.481h-33.835c-4.086,0.102-7.661,0.792-10.751,2.12
	c-3.115,1.328-5.694,3.141-7.763,5.439c-2.068,2.272-3.626,5.005-4.673,8.171c-1.047,3.167-1.558,6.69-1.558,10.521
	c0,11.669,5.107,19.688,15.321,24.003c3.243,1.021,6.384,1.507,9.423,1.507H239.271z M149.486,51.761
	c0-16.19,6.589-29.724,19.739-40.551C179.849,3.729,191.62,0,204.541,0h35.316c16.368,0,30.106,5.414,41.215,16.241
	c9.423,10.214,14.146,22.216,14.146,35.98v3.294c0,15.219-5.822,28.114-17.492,38.737c-10.98,8.682-23.492,13.023-37.563,13.023
	h-35.623c-13.508,0-25.638-4.035-36.362-12.104c-12.462-10.546-18.692-23.953-18.692-40.27V51.761z M0,73.467
	c0-11.925,4.239-20.761,12.716-26.558c5.797-4.571,14.147-6.869,25.05-6.869h64.657c1.737,0,3.014-0.537,3.805-1.609
	c0.792-1.073,1.2-2.426,1.2-4.009v-1.354c0-2.732-1.072-4.52-3.217-5.312c-0.639-0.204-1.583-0.306-2.835-0.306H27.604
	c-11.465,0-20.02-5.49-25.664-16.522C0.638,6.946,0,3.856,0,1.66V0.307C0.051,0.102,0.153,0,0.306,0h103.446
	c4.698,0,9.116,0.792,13.278,2.4c4.188,1.583,7.839,3.831,10.98,6.742c3.141,2.886,5.618,6.333,7.482,10.316
	c1.839,3.983,2.757,8.375,2.757,13.176v2.911c0,10.776-4.954,19.611-14.887,26.557c-2.247,1.302-4.417,2.324-6.511,3.064
	c-2.095,0.741-4.189,1.302-6.282,1.685c-2.094,0.383-4.265,0.613-6.512,0.715c-2.247,0.102-4.647,0.153-7.252,0.153H35.239
	c-2.554,0-3.831,1.276-3.831,3.881c-0.178,0-0.281,1.634-0.281,4.852v3.371h73.39c8.069,0,14.352,1.889,18.845,5.618
	c7.176,5.874,10.776,13.125,10.776,21.706l-0.307,0.153H0.306C0.102,107.276,0,107.199,0,106.995V73.467z"/>
<path fill="#986C32" d="M156.38,208.711c0.051-0.204,0.153-0.307,0.307-0.307h96.499c3.09,0,5.006-0.689,5.771-2.094
	c0.588-1.354,0.894-2.554,0.894-3.651v-0.92c0-2.731-0.944-4.596-2.86-5.592c-0.639-0.204-1.148-0.307-1.557-0.307h-53.038
	c-7.737,0-13.202-1.072-16.395-3.217c-3.345-1.456-6.69-4.443-10.01-8.989c-3.064-4.52-4.571-9.474-4.571-14.811v-0.204
	c0-0.205,0.103-0.307,0.307-0.307h84.523c2.4-0.843,3.601-2.784,3.601-5.771v-0.74c0-2.732-0.944-4.622-2.86-5.618
	c-0.639-0.204-1.148-0.307-1.557-0.307h-68.539c-7.967,0-13.968-1.404-17.951-4.238c-5.082-2.962-8.912-7.941-11.517-14.964
	c-0.357-1.456-0.613-2.707-0.792-3.779c-0.179-1.073-0.255-1.967-0.255-2.656v-1.506c0.051-0.204,0.153-0.307,0.307-0.307H256.71
	c9.219,0,17.44,3.294,24.693,9.882c6.179,6.486,9.269,14.02,9.269,22.6v2.604c0,6.64-1.915,12.691-5.771,18.182v0.307
	c3.855,5.337,5.771,11.49,5.771,18.487v2.451c0,6.486-2.119,12.973-6.358,19.459c-3.601,5.336-9.346,9.27-17.287,11.822
	c-3.983,0.996-7.481,1.481-10.47,1.507H181.89c-5.745-0.025-11.389-2.426-16.98-7.277c-3.882-3.473-6.589-8.3-8.069-14.428
	c-0.307-1.736-0.46-3.013-0.46-3.83V208.711z"/>
<path fill="#986C32" d="M0,208.711c0.051-0.204,0.153-0.307,0.306-0.307h96.5c3.09,0,5.005-0.689,5.771-2.094
	c0.587-1.354,0.894-2.554,0.894-3.651v-0.92c0-2.731-0.945-4.596-2.86-5.592c-0.639-0.204-1.149-0.307-1.558-0.307H46.015
	c-7.737,0-13.202-1.072-16.394-3.217c-3.345-1.456-6.69-4.443-10.01-8.989c-3.064-4.52-4.571-9.474-4.571-14.811v-0.204
	c0-0.205,0.103-0.307,0.307-0.307H99.87c2.4-0.843,3.601-2.784,3.601-5.771v-0.74c0-2.732-0.945-4.622-2.86-5.618
	c-0.639-0.204-1.149-0.307-1.558-0.307H30.515c-7.967,0-13.968-1.404-17.952-4.238c-5.082-2.962-8.911-7.941-11.516-14.964
	c-0.358-1.456-0.613-2.707-0.792-3.779C0.076,131.823,0,130.929,0,130.24v-1.506c0.051-0.204,0.153-0.307,0.306-0.307H100.33
	c9.219,0,17.441,3.294,24.693,9.882c6.18,6.486,9.27,14.02,9.27,22.6v2.604c0,6.64-1.916,12.691-5.771,18.182v0.307
	c3.856,5.337,5.771,11.49,5.771,18.487v2.451c0,6.486-2.12,12.973-6.358,19.459c-3.601,5.336-9.346,9.27-17.288,11.822
	c-3.983,0.996-7.481,1.481-10.47,1.507H25.51c-5.745-0.025-11.388-2.426-16.981-7.277c-3.881-3.473-6.588-8.3-8.069-14.428
	C0.153,212.287,0,211.01,0,210.193V208.711z"/>
</svg>
