<?xml version="1.0" encoding="utf-8"?>
<!-- Generator: Adobe Illustrator 13.0.0, SVG Export Plug-In . SVG Version: 6.00 Build 14948)  -->
<svg version="1.2" baseProfile="tiny" id="Layer_1" xmlns="http://www.w3.org/2000/svg" xmlns:xlink="http://www.w3.org/1999/xlink"
	 x="0px" y="0px" width="299.688px" height="235.729px" viewBox="0 0 299.688 235.729" xml:space="preserve">
<path fill="#986C32" d="M239.271,79.493c10.674,0,18.206-4.724,22.573-14.147c1.455-3.626,2.171-7.609,2.171-11.951
	c0-12.027-5.158-20.097-15.475-24.182c-2.988-0.996-6.078-1.481-9.27-1.481h-33.835c-4.086,0.102-7.661,0.792-10.751,2.119
	c-3.115,1.328-5.694,3.141-7.763,5.439c-2.068,2.272-3.626,5.005-4.673,8.171s-1.558,6.69-1.558,10.521
	c0,11.67,5.107,19.688,15.321,24.003c3.243,1.021,6.384,1.507,9.423,1.507H239.271z M149.487,51.762
	c0-16.19,6.587-29.724,19.739-40.551C179.849,3.729,191.62,0,204.541,0h35.316c16.368,0,30.106,5.414,41.215,16.241
	c9.423,10.214,14.146,22.216,14.146,35.979v3.294c0,15.219-5.822,28.115-17.492,38.738c-10.98,8.682-23.492,13.023-37.563,13.023
	h-35.623c-13.508,0-25.638-4.035-36.362-12.104c-12.462-10.546-18.692-23.952-18.692-40.27V51.762z M0,73.467
	C0,61.542,4.238,52.706,12.717,46.91c5.797-4.571,14.146-6.869,25.05-6.869h64.656c1.737,0,3.014-0.537,3.805-1.609
	s1.2-2.426,1.2-4.009v-1.353c0-2.732-1.072-4.52-3.217-5.312c-0.639-0.204-1.583-0.307-2.835-0.307H27.604
	c-11.466,0-20.02-5.49-25.663-16.521C0.638,6.946,0,3.856,0,1.66V0.307C0.051,0.103,0.153,0,0.306,0h103.445
	c4.699,0,9.116,0.792,13.279,2.401c4.188,1.583,7.839,3.831,10.98,6.741c3.141,2.886,5.618,6.333,7.482,10.316
	c1.839,3.983,2.758,8.375,2.758,13.177v2.911c0,10.776-4.954,19.611-14.887,26.557c-2.248,1.302-4.418,2.324-6.512,3.064
	c-2.094,0.741-4.188,1.302-6.282,1.685c-2.094,0.383-4.265,0.613-6.512,0.715c-2.247,0.103-4.647,0.153-7.252,0.153H35.239
	c-2.553,0-3.83,1.277-3.83,3.881c-0.179,0-0.281,1.635-0.281,4.852v3.371h73.39c8.069,0,14.351,1.889,18.846,5.618
	c7.175,5.873,10.776,13.125,10.776,21.706l-0.307,0.153H0.306C0.102,107.276,0,107.2,0,106.995V73.467z"/>
<path fill="#986C32" d="M262.967,208.074c3.882,0,5.822-2.222,5.822-6.665c0-1.839-0.562-3.55-1.711-5.158
	c-0.894-1.047-3.013-1.558-6.358-1.558h-71.296v5.158c0,4.469,0.996,7.022,2.987,7.635c0.945,0.383,2.068,0.588,3.371,0.588H262.967
	z M158.449,161.063c0-10.726,4.622-19.433,13.84-26.123c6.844-4.341,14.07-6.512,21.706-6.512h96.934
	c0.204,0,0.307,0.153,0.307,0.459c0,3.882-0.741,7.482-2.196,10.803c-1.481,3.319-3.473,6.205-5.949,8.605
	c-2.503,2.426-5.439,4.315-8.785,5.694c-3.37,1.379-6.971,2.043-10.827,2.043h-67.695c-3.191,0-5.106,1.072-5.771,3.218
	c-0.384,0.918-0.588,2.578-0.588,5.029v2.835h73.543c14.964,0,25.894,5.771,32.84,17.288c2.578,4.979,3.881,10.24,3.881,15.781
	v3.064c0,9.32-3.779,17.415-11.363,24.233c-7.278,5.49-15.117,8.247-23.493,8.247h-70.708c-12.411,0-22.472-4.928-30.209-14.759
	c-3.652-5.567-5.465-11.543-5.465-17.875V161.063z M0,201.895c0-11.925,4.238-20.761,12.717-26.558
	c5.797-4.571,14.146-6.869,25.05-6.869h64.656c1.737,0,3.014-0.536,3.805-1.608s1.2-2.427,1.2-4.01v-1.353
	c0-2.732-1.072-4.521-3.217-5.312c-0.639-0.205-1.583-0.307-2.835-0.307H27.604c-11.466,0-20.02-5.49-25.663-16.521
	C0.638,135.373,0,132.283,0,130.087v-1.353c0.051-0.204,0.153-0.307,0.306-0.307h103.445c4.699,0,9.116,0.792,13.279,2.4
	c4.188,1.583,7.839,3.83,10.98,6.741c3.141,2.886,5.618,6.333,7.482,10.316c1.839,3.983,2.758,8.376,2.758,13.177v2.911
	c0,10.775-4.954,19.611-14.887,26.558c-2.248,1.302-4.418,2.323-6.512,3.064c-2.094,0.74-4.188,1.302-6.282,1.685
	c-2.094,0.383-4.265,0.613-6.512,0.715c-2.247,0.103-4.647,0.153-7.252,0.153H35.239c-2.553,0-3.83,1.276-3.83,3.882
	c-0.179,0-0.281,1.634-0.281,4.852v3.371h73.39c8.069,0,14.351,1.889,18.846,5.618c7.175,5.873,10.776,13.125,10.776,21.705
	l-0.307,0.152H0.306C0.102,235.703,0,235.627,0,235.423V201.895z"/>
</svg>
