<?xml version="1.0" encoding="utf-8"?>
<!-- Generator: Adobe Illustrator 13.0.0, SVG Export Plug-In . SVG Version: 6.00 Build 14948)  -->
<svg version="1.2" baseProfile="tiny" id="Layer_1" xmlns="http://www.w3.org/2000/svg" xmlns:xlink="http://www.w3.org/1999/xlink"
	 x="0px" y="0px" width="295.219px" height="235.728px" viewBox="0 0 295.219 235.728" xml:space="preserve">
<path fill="#986C32" d="M239.271,79.493c10.673,0,18.206-4.724,22.573-14.147c1.455-3.626,2.17-7.609,2.17-11.95
	c0-12.028-5.158-20.097-15.475-24.183c-2.987-0.996-6.077-1.481-9.269-1.481h-33.836c-4.085,0.102-7.66,0.792-10.75,2.119
	c-3.115,1.328-5.694,3.141-7.763,5.439c-2.068,2.272-3.627,5.005-4.674,8.171s-1.557,6.69-1.557,10.521
	c0,11.67,5.106,19.688,15.32,24.003c3.244,1.021,6.385,1.507,9.423,1.507H239.271z M149.487,51.761
	c0-16.19,6.588-29.724,19.739-40.551C179.848,3.729,191.621,0,204.542,0h35.316c16.368,0,30.106,5.414,41.215,16.241
	c9.423,10.214,14.146,22.216,14.146,35.979v3.294c0,15.219-5.822,28.115-17.492,38.738c-10.98,8.682-23.492,13.023-37.563,13.023
	h-35.623c-13.508,0-25.638-4.035-36.363-12.104c-12.461-10.546-18.691-23.953-18.691-40.271V51.761z M0,73.467
	c0-11.925,4.239-20.761,12.717-26.558c5.797-4.571,14.147-6.869,25.05-6.869h64.657c1.737,0,3.014-0.537,3.805-1.609
	c0.792-1.073,1.2-2.426,1.2-4.01v-1.353c0-2.732-1.072-4.52-3.217-5.312c-0.639-0.204-1.583-0.307-2.835-0.307H27.604
	c-11.466,0-20.02-5.49-25.664-16.521C0.638,6.946,0,3.856,0,1.66V0.307C0.051,0.102,0.153,0,0.307,0h103.445
	c4.698,0,9.116,0.792,13.278,2.4c4.188,1.583,7.839,3.831,10.98,6.742c3.141,2.885,5.618,6.333,7.482,10.316
	c1.839,3.983,2.758,8.376,2.758,13.177v2.911c0,10.776-4.954,19.611-14.887,26.557c-2.247,1.302-4.417,2.324-6.511,3.064
	c-2.094,0.741-4.188,1.302-6.282,1.685c-2.094,0.383-4.265,0.613-6.512,0.715c-2.248,0.103-4.648,0.154-7.252,0.154H35.239
	c-2.553,0-3.83,1.276-3.83,3.881c-0.179,0-0.281,1.634-0.281,4.852v3.371h73.39c8.069,0,14.351,1.889,18.845,5.618
	c7.176,5.873,10.776,13.125,10.776,21.706l-0.306,0.153H0.307C0.102,107.276,0,107.199,0,106.995V73.467z"/>
<path fill="#986C32" d="M257.502,208.073c3.882,0,5.822-2.221,5.822-6.664c0-1.839-0.562-3.55-1.711-5.159
	c-0.894-1.047-3.013-1.558-6.358-1.558h-71.296v5.158c0,4.469,0.996,7.022,2.988,7.636c0.944,0.383,2.068,0.587,3.37,0.587H257.502z
	 M152.985,161.062c0-10.726,4.622-19.433,13.84-26.124c6.844-4.341,14.07-6.512,21.706-6.512h96.934c0.205,0,0.307,0.153,0.307,0.46
	c0,3.882-0.74,7.482-2.196,10.802c-1.48,3.319-3.473,6.205-5.949,8.605c-2.503,2.426-5.439,4.316-8.784,5.694
	c-3.371,1.379-6.972,2.044-10.828,2.044h-67.695c-3.191,0-5.106,1.072-5.771,3.217c-0.384,0.919-0.588,2.579-0.588,5.03v2.835
	h73.543c14.964,0,25.894,5.771,32.84,17.287c2.578,4.979,3.881,10.24,3.881,15.781v3.064c0,9.32-3.779,17.415-11.363,24.233
	c-7.277,5.49-15.117,8.248-23.492,8.248h-70.709c-12.411,0-22.472-4.928-30.209-14.759c-3.651-5.567-5.465-11.543-5.465-17.876
	V161.062z M0,208.711c0.051-0.204,0.153-0.307,0.307-0.307h96.5c3.09,0,5.005-0.689,5.771-2.094
	c0.588-1.354,0.894-2.554,0.894-3.651v-0.92c0-2.731-0.945-4.596-2.86-5.592c-0.638-0.204-1.149-0.307-1.557-0.307H46.015
	c-7.737,0-13.202-1.072-16.394-3.218c-3.345-1.455-6.69-4.443-10.01-8.988c-3.064-4.521-4.571-9.474-4.571-14.811v-0.204
	c0-0.205,0.103-0.307,0.307-0.307h84.523c2.4-0.843,3.601-2.784,3.601-5.771v-0.74c0-2.732-0.945-4.622-2.86-5.618
	c-0.638-0.204-1.149-0.307-1.557-0.307H30.516c-7.967,0-13.969-1.404-17.952-4.238c-5.082-2.963-8.912-7.942-11.517-14.964
	c-0.357-1.456-0.613-2.707-0.792-3.779C0.077,131.823,0,130.929,0,130.24v-1.507c0.051-0.204,0.153-0.307,0.307-0.307H100.33
	c9.219,0,17.441,3.295,24.693,9.883c6.18,6.486,9.27,14.019,9.27,22.6v2.604c0,6.639-1.915,12.691-5.771,18.182V182
	c3.856,5.338,5.771,11.491,5.771,18.488v2.451c0,6.486-2.12,12.973-6.358,19.459c-3.601,5.336-9.346,9.27-17.288,11.822
	c-3.983,0.996-7.481,1.481-10.47,1.507H25.51c-5.746-0.025-11.389-2.426-16.981-7.278c-3.882-3.473-6.588-8.299-8.07-14.427
	C0.153,212.287,0,211.009,0,210.193V208.711z"/>
</svg>
