<?xml version="1.0" encoding="utf-8"?>
<!-- Generator: Adobe Illustrator 13.0.0, SVG Export Plug-In . SVG Version: 6.00 Build 14948)  -->
<svg version="1.2" baseProfile="tiny" id="Layer_1" xmlns="http://www.w3.org/2000/svg" xmlns:xlink="http://www.w3.org/1999/xlink"
	 x="0px" y="0px" width="295.219px" height="235.729px" viewBox="0 0 295.219 235.729" xml:space="preserve">
<path fill="#986C32" d="M239.271,79.493c10.674,0,18.207-4.724,22.573-14.147c1.455-3.626,2.171-7.609,2.171-11.951
	c0-12.027-5.158-20.096-15.475-24.182c-2.988-0.996-6.078-1.481-9.27-1.481h-33.835c-4.086,0.102-7.661,0.791-10.751,2.12
	c-3.115,1.328-5.694,3.141-7.763,5.438c-2.068,2.273-3.626,5.006-4.673,8.172c-1.047,3.167-1.558,6.69-1.558,10.521
	c0,11.669,5.107,19.688,15.321,24.003c3.243,1.021,6.384,1.506,9.423,1.506H239.271z M149.486,51.761
	c0-16.19,6.589-29.724,19.739-40.551C179.849,3.729,191.62,0,204.542,0h35.315c16.368,0,30.106,5.414,41.215,16.241
	c9.423,10.214,14.146,22.216,14.146,35.98v3.294c0,15.219-5.822,28.115-17.492,38.738c-10.979,8.682-23.492,13.023-37.563,13.023
	h-35.622c-13.509,0-25.639-4.035-36.363-12.104c-12.462-10.546-18.692-23.953-18.692-40.27V51.761z M0,73.466
	c0-11.925,4.239-20.761,12.717-26.557c5.796-4.571,14.147-6.869,25.05-6.869h64.657c1.737,0,3.013-0.537,3.805-1.609
	c0.792-1.072,1.2-2.426,1.2-4.009v-1.353c0-2.732-1.072-4.52-3.217-5.312c-0.639-0.205-1.583-0.307-2.834-0.307H27.604
	c-11.465,0-20.02-5.49-25.664-16.521C0.638,6.946,0,3.856,0,1.66V0.307C0.051,0.102,0.153,0,0.306,0h103.446
	c4.698,0,9.116,0.792,13.278,2.4c4.188,1.583,7.839,3.83,10.98,6.742c3.141,2.885,5.618,6.333,7.482,10.316
	c1.839,3.983,2.758,8.375,2.758,13.176v2.911c0,10.776-4.954,19.611-14.888,26.557c-2.247,1.302-4.417,2.323-6.511,3.064
	c-2.095,0.74-4.188,1.302-6.282,1.685c-2.094,0.383-4.265,0.613-6.512,0.715c-2.247,0.103-4.647,0.154-7.252,0.154H35.239
	c-2.554,0-3.831,1.276-3.831,3.881c-0.178,0-0.281,1.634-0.281,4.852v3.371h73.39c8.069,0,14.352,1.89,18.845,5.618
	c7.176,5.873,10.776,13.125,10.776,21.706l-0.307,0.153H0.306C0.102,107.276,0,107.199,0,106.995V73.466z"/>
<path fill="#986C32" d="M235.286,207.92c10.674,0,18.207-4.724,22.573-14.146c1.456-3.626,2.171-7.609,2.171-11.951
	c0-12.027-5.158-20.097-15.475-24.182c-2.987-0.996-6.077-1.481-9.27-1.481h-33.835c-4.086,0.102-7.66,0.792-10.75,2.119
	c-3.115,1.328-5.694,3.142-7.764,5.439c-2.067,2.272-3.626,5.005-4.673,8.172c-1.047,3.166-1.557,6.69-1.557,10.521
	c0,11.669,5.106,19.688,15.32,24.004c3.244,1.021,6.385,1.506,9.423,1.506H235.286z M145.503,180.188
	c0-16.189,6.588-29.724,19.739-40.551c10.622-7.482,22.395-11.211,35.315-11.211h35.316c16.368,0,30.106,5.414,41.214,16.241
	c9.424,10.214,14.147,22.216,14.147,35.979v3.295c0,15.219-5.822,28.114-17.492,38.737c-10.98,8.683-23.493,13.023-37.563,13.023
	h-35.622c-13.509,0-25.638-4.034-36.363-12.104c-12.461-10.546-18.691-23.952-18.691-40.27V180.188z M0,208.712
	c0.051-0.204,0.153-0.307,0.306-0.307h96.5c3.09,0,5.005-0.689,5.771-2.094c0.587-1.354,0.894-2.554,0.894-3.651v-0.92
	c0-2.731-0.945-4.596-2.86-5.592c-0.639-0.204-1.149-0.307-1.558-0.307H46.015c-7.737,0-13.202-1.072-16.394-3.218
	c-3.345-1.455-6.69-4.443-10.01-8.988c-3.064-4.521-4.571-9.474-4.571-14.811v-0.205c0-0.204,0.102-0.306,0.307-0.306H99.87
	c2.4-0.843,3.601-2.784,3.601-5.771v-0.74c0-2.732-0.945-4.622-2.86-5.618c-0.639-0.204-1.149-0.307-1.558-0.307H30.515
	c-7.967,0-13.968-1.404-17.952-4.238c-5.082-2.963-8.912-7.942-11.517-14.964c-0.358-1.456-0.613-2.707-0.792-3.779
	C0.077,131.823,0,130.93,0,130.24v-1.507c0.051-0.204,0.153-0.307,0.306-0.307H100.33c9.219,0,17.441,3.295,24.693,9.883
	c6.18,6.486,9.27,14.019,9.27,22.6v2.604c0,6.639-1.916,12.69-5.771,18.182v0.306c3.856,5.338,5.771,11.491,5.771,18.488v2.451
	c0,6.486-2.12,12.973-6.358,19.459c-3.601,5.336-9.346,9.27-17.288,11.822c-3.983,0.996-7.481,1.481-10.469,1.507H25.51
	c-5.745-0.025-11.388-2.426-16.981-7.278c-3.881-3.473-6.588-8.299-8.069-14.427C0.153,212.287,0,211.01,0,210.193V208.712z"/>
</svg>
