<?xml version="1.0" encoding="utf-8"?>
<!-- Generator: Adobe Illustrator 13.0.0, SVG Export Plug-In . SVG Version: 6.00 Build 14948)  -->
<svg version="1.2" baseProfile="tiny" id="Layer_1" xmlns="http://www.w3.org/2000/svg" xmlns:xlink="http://www.w3.org/1999/xlink"
	 x="0px" y="0px" width="295.219px" height="235.729px" viewBox="0 0 295.219 235.729" xml:space="preserve">
<path fill="#986C32" d="M239.271,79.493c10.674,0,18.207-4.724,22.573-14.147c1.455-3.626,2.171-7.609,2.171-11.951
	c0-12.027-5.158-20.096-15.475-24.182c-2.988-0.996-6.078-1.481-9.27-1.481h-33.835c-4.086,0.102-7.661,0.791-10.751,2.12
	c-3.115,1.328-5.694,3.141-7.763,5.438c-2.068,2.273-3.626,5.006-4.673,8.172c-1.047,3.167-1.558,6.69-1.558,10.521
	c0,11.669,5.107,19.688,15.321,24.003c3.243,1.021,6.384,1.506,9.423,1.506H239.271z M149.486,51.761
	c0-16.19,6.589-29.724,19.739-40.551C179.849,3.729,191.62,0,204.541,0h35.316c16.368,0,30.106,5.414,41.215,16.241
	c9.423,10.214,14.146,22.216,14.146,35.98v3.294c0,15.219-5.822,28.115-17.492,38.738c-10.98,8.682-23.492,13.023-37.563,13.023
	h-35.623c-13.508,0-25.638-4.035-36.362-12.104c-12.462-10.546-18.692-23.953-18.692-40.27V51.761z M0,73.466
	c0-11.925,4.239-20.761,12.716-26.557c5.797-4.571,14.147-6.869,25.05-6.869h64.657c1.737,0,3.014-0.537,3.805-1.609
	c0.792-1.072,1.2-2.426,1.2-4.009v-1.353c0-2.732-1.072-4.52-3.217-5.312c-0.639-0.205-1.583-0.307-2.835-0.307H27.604
	c-11.465,0-20.02-5.49-25.664-16.521C0.638,6.946,0,3.856,0,1.66V0.307C0.051,0.102,0.153,0,0.306,0h103.446
	c4.698,0,9.116,0.792,13.278,2.4c4.188,1.583,7.839,3.83,10.98,6.742c3.141,2.885,5.618,6.333,7.482,10.316
	c1.839,3.983,2.757,8.375,2.757,13.176v2.911c0,10.776-4.954,19.611-14.887,26.557c-2.247,1.302-4.417,2.323-6.511,3.064
	c-2.095,0.74-4.189,1.302-6.282,1.685c-2.094,0.383-4.265,0.613-6.512,0.715c-2.247,0.103-4.647,0.154-7.252,0.154H35.239
	c-2.554,0-3.831,1.276-3.831,3.881c-0.178,0-0.281,1.634-0.281,4.852v3.371h73.39c8.069,0,14.352,1.89,18.845,5.618
	c7.176,5.873,10.776,13.125,10.776,21.706l-0.307,0.153H0.306C0.102,107.276,0,107.199,0,106.995V73.466z"/>
<path fill="#986C32" d="M252.038,208.38c3.141,0,5.133-0.715,5.924-2.094c0.689-1.558,1.048-3.09,1.048-4.571
	c0-1.659-0.409-3.064-1.2-4.265c-0.792-1.2-2.069-1.787-3.805-1.787h-66.904c-2.272,0-3.856,1.175-4.698,3.575
	c-0.205,0.766-0.307,1.532-0.307,2.323v0.588c0,2.604,0.944,4.469,2.834,5.618c0.92,0.408,2.272,0.612,4.138,0.612H252.038z
	 M242.462,168.11c4.801,0,7.585-0.588,8.401-1.788c0.485-0.996,0.74-2.272,0.74-3.805c0-3.039-0.868-5.082-2.63-6.077
	c-0.944-0.383-1.583-0.588-1.94-0.588h-52.808c-2.146,0-3.627,1.379-4.418,4.111c-0.052,0.408-0.102,0.792-0.102,1.175
	c-0.026,0.357-0.052,0.664-0.052,0.919v1.276c0,2.503,0.97,3.934,2.911,4.342c1.762,0.307,3.779,0.435,6.077,0.435H242.462z
	 M151.428,201.153c0-9.627,3.702-17.696,11.082-24.183c-2.451-4.826-3.677-9.831-3.677-15.04c0-15.041,7.456-25.562,22.369-31.563
	c4.877-1.303,8.784-1.941,11.67-1.941h55.361c9.065,0,17.236,3.244,24.463,9.729c6.333,6.333,9.5,13.969,9.5,22.88v0.767
	c0,5.184-1.149,10.291-3.447,15.321c7.277,6.537,10.929,14.428,10.929,23.646v3.063c0,10.087-4.57,18.642-13.688,25.664
	c-6.689,4.137-13.559,6.205-20.658,6.205h-69.636c-10.291,0-19.126-3.779-26.558-11.363c-5.133-6.486-7.711-13.177-7.711-20.046
	V201.153z M0,201.895c0-11.926,4.239-20.762,12.716-26.558c5.797-4.571,14.147-6.869,25.05-6.869h64.657
	c1.737,0,3.014-0.537,3.805-1.609s1.2-2.426,1.2-4.009v-1.354c0-2.732-1.072-4.521-3.217-5.312
	c-0.639-0.204-1.583-0.307-2.835-0.307H27.604c-11.465,0-20.02-5.49-25.664-16.521c-1.302-3.983-1.94-7.073-1.94-9.27v-1.354
	c0.051-0.204,0.153-0.307,0.306-0.307h103.446c4.698,0,9.116,0.792,13.278,2.4c4.188,1.584,7.839,3.831,10.98,6.742
	c3.141,2.886,5.618,6.333,7.482,10.316c1.839,3.983,2.757,8.375,2.757,13.176v2.911c0,10.776-4.954,19.611-14.887,26.558
	c-2.247,1.302-4.417,2.323-6.511,3.064c-2.095,0.741-4.189,1.303-6.282,1.685c-2.094,0.384-4.265,0.613-6.512,0.716
	c-2.247,0.103-4.647,0.153-7.252,0.153H35.239c-2.554,0-3.831,1.276-3.831,3.881c-0.178,0-0.281,1.635-0.281,4.853v3.371h73.39
	c8.069,0,14.352,1.889,18.845,5.617c7.176,5.873,10.776,13.125,10.776,21.705l-0.307,0.153H0.306C0.102,235.703,0,235.627,0,235.422
	V201.895z"/>
</svg>
